<svg xmlns="http://www.w3.org/2000/svg" viewBox="-82.5 0 893 893"><path fill="#4b7df8" d="m374.75 18.688 2.844-.088c6.973-.063 12.115 1.498 18.406 4.4l3 1v2l6 2v2l2.23.754c3.015 1.356 4.768 2.842 7.082 5.183l2.114 2.09C418 40 418 40 418 43l3 1c1.188 3.063 1.188 3.063 2 6h2l2 8h2c.182.568.364 1.137.55 1.723 1.348 4.137 2.795 8.134 4.555 12.117 1.286 3.103 2.438 6.253 3.582 9.41l1.325 3.64C440 88 440 88 440 91h2c1.316 3.62 2 6.096 2 10h2l.75 3.375c.838 3.642.838 3.642 3.188 4.875L452 110c1.019.981 2.016 1.985 3 3a400 400 0 0 0 4 3.5c5.26 4.543 5.26 4.543 7 6.5v2l1.625.688c6.125 3.384 10.854 8.723 15.688 13.687 2.154 2.104 4.335 4.05 6.625 6 3.202 2.765 5.885 5.68 8.566 8.941 2.055 2.314 4.394 4.188 6.777 6.153 2.324 2.07 4.211 4.416 6.188 6.812 1.568 1.76 3.213 3.22 5.031 4.719 3.043 2.51 5.465 5.245 7.969 8.281 2.067 2.32 4.407 4.205 6.8 6.176 2.388 2.129 4.349 4.537 6.376 7.004 1.593 1.809 3.415 3.122 5.355 4.539v2l3 1c2.188 1.938 2.188 1.938 4 4v2l1.625.688c4.96 2.74 8.461 6.29 11.941 10.695 2.359 2.66 5.117 4.85 7.86 7.101L573 227v2l1.688.625c3.172 1.886 4.99 4.53 7.312 7.375a487 487 0 0 0 4 3v2l1.688.625c3.172 1.886 4.99 4.53 7.312 7.375a487 487 0 0 0 4 3v2l1.793.777c3.923 2.174 6.396 5.794 9.207 9.223l2.008 2.422C617 273.607 617 273.607 617 277h2c1.498 3.371 2 5.204 2 9h2c2.857 11.808 5.714 28.572 0 40h-2l-1 8-3 1c-.61 1.857-.61 1.857-1 4a88 88 0 0 1-2 4h-2l-.312 1.938L611 347l-3 1c-1.209 2-1.209 2-2 4h-2l-1 3c-2.062.688-2.062.688-4 1v2c-5.625 3-5.625 3-9 3v2c-3.371 1.498-5.204 2-9 2v2c-8.429 2.286-8.429 2.286-13 2v2q-4.125.756-8.25 1.5l-2.355.434-2.286.41-2.094.38C551 374 551 374 547 374l.473 2.117.59 2.758.597 2.742C549 384 549 384 548 386h2c2.343 14.394 2.28 29.007 2.552 43.549q.079 4.03.167 8.06l.04 2.513c-.271 3.746-.271 3.746 1.241 6.878.089 2.739.115 5.453.098 8.191l-.005 2.485c-.005 2.629-.018 5.258-.03 7.887q-.009 2.666-.014 5.333-.017 6.552-.049 13.104h-2l.035 2.14c.063 7.11-.103 14.195-.41 21.298-.03.851-.062 1.703-.094 2.58-.223 4.715-.974 8.495-2.531 12.982l1 3-1 1a284 284 0 0 0-.812 7.938C546.589 551.395 543.74 567.7 541 584h-2l-.184 3.07-.254 4.055-.119 2.016c-.255 4.01-.71 7.909-1.443 11.859h-2l1 3c-.852 8.807-2.484 17.883-5 26.375-1.418 5.14-2.187 10.36-3 15.625h-2l.07 1.695c.17 7.575-.865 14.839-2.07 22.305h-2l.035 3c.098 12.01.098 12.01-.535 16.25-1.793 13.451-1.22 28.758 7.105 39.898 4.998 6.112 9.526 8.784 17.395 9.852q3.499.134 7 .125l3.563.008c3.234-.125 6.262-.523 9.437-1.133v-2c1.863-1.332 1.863-1.332 4.313-2.812 3.684-2.351 5.702-4.219 7.687-8.188h2l2-7h2l2-9h2l.184-2.555.254-3.32c.08-1.09.162-2.181.246-3.305C589 701 589 701 590 699h2l.06-2.06c.096-3.126.206-6.252.315-9.378.03-1.069.062-2.138.094-3.24.305-8.313 1.37-15.617 4.531-23.322.729-2.655 1.364-5.32 2-8h2l.438-2.812C602 647 602 647 603 644h2l.375-1.75c.64-2.301 1.418-4.191 2.625-6.25l2-1 .938-1.875c1.13-2.261 2.216-3.415 4.062-5.125l2.438-2.437L620 623l2-2.125c2.19-2.053 4.386-3.408 7-4.875l2.625-1.687C634 613 634 613 637 613v-2c9.41-3.444 9.41-3.444 14-3v-2c9.749-2.107 19.008-3.323 29-2.812l2.565.128c5.93.39 11.637 1.393 17.435 2.684v2l2.375.438C705 609 705 609 707 610v2l3 1c.688 2.063.688 2.063 1 4h2c2.734 4.003 2.295 8.287 2.25 12.938l.023 2.42c-.017 5.233-.241 9.385-3.894 13.443l-1.817 1.511-1.808 1.551C706 650 706 650 703 650v2c-7.915 2.188-15.385 2.234-23.562 2.125l-3.924-.027q-4.758-.036-9.514-.098v2l-3.187 1.25C655.39 660.482 652.52 664.96 649 672h-2a6560 6560 0 0 0-1.79 12.954 730 730 0 0 0-2.683 22.32c-.57 4.028-1.477 7.798-2.527 11.726h-2l.125 3c.017 4.238-.983 7.932-2.125 12h-2l-.437 2.75c-.427 2.465-.914 4.838-1.563 7.25h-2l-.375 2.25c-.58 2.551-1.362 4.477-2.625 6.75h-2l-.312 2.313c-.764 2.986-1.485 3.654-3.688 5.687a791 791 0 0 0-3 5c-2.062 2.813-2.062 2.813-4 5h-2l-2 4h-2v2l-1.875.813C603.7 778.956 603.7 778.956 602 782c-2.64 1.618-3.84 2-7 2v2l-6 2v2c-3.877 1.193-6.916 2-11 2v2l-3.027.621-3.91.817-3.903.808c-3.006.426-3.006.426-4.16 1.754-1.842.1-3.687.13-5.531.133l-3.395.004-3.574-.012-3.574.012-3.395-.004-3.138-.004C538 798 538 798 537 797a303 303 0 0 0-8.562-1.562l-2.444-.42q-2.996-.514-5.994-1.018v-2l-9-2v-2l-2.375-.437C506 787 506 787 504 786v-2l-2.437-.812L499 782l-1-3-2-.5-2-.5-1-3c-2-1.209-2-1.209-4-2v-2l-3-1-1-4-3-1c-1.648-2.602-2-3.862-2-7h-2c-4.854-10.437-4.854-10.437-6.75-15.625-.908-3.172-.908-3.172-2.25-4.375a71 71 0 0 1-.5-4.125c-.273-2.763-.597-5.447-1.062-8.187-.621-5.232-.516-10.427-.438-15.688h-2v-20h2l-.035-3.402c-.082-11.119.28-21.752 3.035-32.598l1-1c.273-1.547.49-3.105.684-4.664l.373-2.902.75-6.047c.685-5.319 1.682-10.232 3.193-15.387.456-2.74.766-5.489 1.063-8.25.815-7.383.815-7.383 1.937-10.75q.38-2.276.684-4.562l.373-2.665q.38-2.772.75-5.546l.377-2.664.33-2.434C482 585 482 585 484 582c.389-2.827.389-2.827.5-6 .545-8.592 1.943-16.78 4.5-25h-2v2l-1.812.813c-2.188 1.05-2.188 1.05-3.586 2.605-4.32 4.267-10.206 6.947-15.602 9.582l-3 2h-3l-.371 3.652c-.704 6.333-1.706 12.617-2.692 18.91l-.564 3.635Q455.689 598.6 455 603h-2l-.148 2.027c-.976 12.527-2.08 24.934-5.168 37.141-.708 2.931-1.203 5.856-1.684 8.832q-.449 2.13-.937 4.25c-1.11 4.9-2.096 9.82-3.063 14.75h-2l-.184 2.598c-1.125 15.358-1.125 15.358-3.21 22.242-1.127 4.02-2 8.102-2.922 12.172a217 217 0 0 1-1.176 4.93c-.762 3.087-1.408 6.198-2.07 9.308l-.817 3.828L429 728h-2l.125 2.563c-.14 3.86-.953 6.774-2.125 10.437h-2l.188 2.813c0 7.403-2.931 14.67-5.305 21.605a812 812 0 0 0-2.724 8.151c-3.114 9.42-3.114 9.42-4.846 13.931-1.355 3.469-1.355 3.469-2.313 7-.901 3.154-1.968 6.188-3.14 9.25a652 652 0 0 0-2.985 8l-1.008 2.734A63 63 0 0 0 399 821h-2l-.324 3.492c-.564 4.485-1.858 8.434-3.488 12.633l-.752 2.05c-2.698 7.097-6.243 12.402-12.436 16.825-2.875.813-2.875.813-5 1v2c-6.353 1.694-13.647 1.694-20 0v-2l-1.812-.437c-4.943-1.272-7.404-3.332-10.188-7.563-.812-2.875-.812-2.875-1-5h-2c-1.158-3.677-1.133-7.163-1.125-11l-.008-3.687c.107-2.66.34-4.795 1.133-7.313h2l.375-3.062c.606-3.817 1.497-7.253 2.625-10.938h2l.438-3.75c.349-2.815.766-5.52 1.562-8.25h2l.332-1.871c.967-5.164 2.2-10.055 3.938-15.012 1.037-3.007 1.882-6.052 2.73-9.117h2l.184-1.828.253-2.422.247-2.39c.292-2.184.737-4.237 1.316-6.36h2l.184-1.828.253-2.422.247-2.39c.292-2.184.737-4.237 1.316-6.36h2l.375-3.937c.667-5.987 1.944-11.72 3.625-17.5 1.036-3.69 1.763-7.364 2.438-11.133C375 709 375 709 376 706.535c1.055-2.675 1.55-5.137 2-7.972.464-2.916 1-5.56 1.96-8.356 1.292-3.983 1.98-7.958 2.665-12.082l.406-2.375q.49-2.874.969-5.75h2l-.07-2.09c-.122-6.332.463-11.785 2.07-17.91h2l-.555-1.68c-.532-2.774-.157-4.687.43-7.445.933-4.66 1.513-9.24 1.879-13.977C392 625 392 625 393 624c1.585-9.262 2.4-18.629 3-28h2l1-8-2.148.212c-7.818.719-15.566.98-23.414.976h-3.682c-11.214-.071-22.846-.324-33.756-3.188l-.076 3.45q-.144 6.435-.296 12.87-.065 2.768-.125 5.534c-.237 10.745-.588 21.434-1.503 32.146h-2l.533 3.04c.467 3.96.34 7.36-.056 11.32l-.2 2.033q-.207 2.107-.428 4.215c-.225 2.15-.436 4.3-.646 6.45-1.05 10.48-1.05 10.48-2.203 13.942-.35 1.916-.67 3.838-.973 5.762l-.537 3.388-.553 3.538-.564 3.572q-.69 4.37-1.373 8.74h-2l.125 2.938c.018 4.51-1.02 8.71-2.125 13.062h-2l-.184 1.828-.253 2.422-.247 2.39c-.292 2.184-.737 4.237-1.316 6.36h-2l-.184 1.863-.253 2.45-.247 2.425C314 744 314 744 313 747h-2l-.309 2.477c-.82 4.182-2.21 7.937-3.753 11.898l-.854 2.23q-1.036 2.7-2.084 5.395h-2l-2 8h-2l-.25 2c-1.626 6.503-5.433 12.312-8.7 18.117A97 97 0 0 0 287 801h-2l-.812 3.438L283 808l-3 1-.437 2.375C279 814 279 814 278 816h-2l-2 6h-2l-.687 2.25c-1.581 3.312-3.268 4.745-6.313 6.75h-3v2c-3.821 1.228-7.512 1.133-11.5 1.125l-3.969.008c-2.753-.104-4.935-.298-7.531-1.133v-2l-2.125-.187c-4.509-1.275-7.712-4.015-10.25-7.938C226 821 226 821 226 818h-2c-1.281-6.407-1.598-12.606 0-19h2l1-7 3-1 .375-2.25c.58-2.551 1.362-4.477 2.625-6.75h2l.34-1.703c.75-2.612 1.872-4.692 3.222-7.047l1.38-2.422L241 769h2l.375-2.187c.615-2.77 1.51-5.21 2.625-7.813h2l.438-2.875C249 753 249 753 250 751h2l2-9h2l.332-1.941c.992-5.413 2.424-10.01 4.668-15.059.765-2.652 1.386-5.307 2-8h2l.184-1.793c.436-4.117.903-8.162 1.816-12.207h2l.184-2.344c.475-5.908 1.025-11.781 1.816-17.656h2l-1-3c.3-2.054.3-2.054.867-4.43 1.27-5.871 1.794-11.713 2.258-17.695l.262-3.187q.315-3.844.613-7.688h2l-.016-2.708c-.081-16.1-.062-32.154.656-48.24.305-7.02.47-14.026.485-21.052l.014-2.683c.113-4.294.113-4.294-1.139-8.317a161 161 0 0 0-7-3v-2l-5-2v-2l-1.937-.312L262 554l-1-3c-1.902-.6-1.902-.6-4-1l-3-2v-2l-4-1v16h2c3.994 60.647 3.994 60.647-2 75-.41 1.595-.788 3.2-1.125 4.813l-.508 2.394L248 645h-2l-2 9h-2l-.25 2.625c-.883 3.975-2.33 6.105-4.75 9.375l-1.527 2.121c-4.18 5.732-4.18 5.732-6.473 6.879l-.875 2-1.125 2q-1.99.544-4 1l-1 3c-1.96 1.605-1.96 1.605-4.375 3.188l-2.398 1.605C213 689 213 689 210 689l-1 3-6 1v2c-4.537 1.452-8.18 2.235-13 2v2c-15.323 2.939-29.707 2.278-45 0v-2l-1.863-.184-2.45-.254c-.8-.08-1.6-.162-2.425-.246C136 696 136 696 133 695v-2l-2.812-.437C127 692 127 692 124 691v-2l-2.621-.73c-3.715-1.396-6.3-3.17-9.442-5.582l-3.035-2.301c-2.83-2.327-5.432-4.681-7.902-7.387v-2l-1.828-.75c-2.53-1.456-3.44-2.761-4.922-5.25l-1.297-2.125C92 661 92 661 92 659h-2l-.875-2.437c-.858-2.696-.858-2.696-3.125-3.563-1.627-3.345-2-5.188-2-9h-2a528 528 0 0 1-1.562-4.875l-.88-2.742C79 634 79 634 80 632h-2l-.621-3.43-.817-4.445-.408-2.262c-.7-4.048-.7-4.048-2.154-7.863-.03-2.406.067-4.795.16-7.2-.053-2.926-.053-2.926-1.187-6.085-1.151-4.396-.989-7.985-.598-12.465l.336-4.484L73 580c0-4.566-.155-9.124-.312-13.687l-.069-2.936C72.232 552.973 68.998 544.861 62 537c-6.892-4.983-14.6-5.189-22.812-5.562l-2.678-.131q-3.255-.158-6.51-.307v-2l-3.312-.437C23 528 23 528 20 527l-1-2-3-1c-.687-2.062-.687-2.062-1-4h-2c-1.604-3.508-2.22-6.144-2-10H9v-9h2l.438-3.375C12 494 12 494 13 492h2l2-4h2l1-3c3.604-1.522 6.052-2 10-2v-2c5.17-1.151 10.1-1.184 15.375-1.187l2.79-.038c5.381-.011 9.737.513 14.835 2.225q2.151.462 4.313.875c9.316 2.05 17.456 6.43 25.687 11.125v2l2.438.813L98 498l1 3 4 1c1.379 1.523 1.379 1.523 2.563 3.375 1.631 2.514 3.319 4.512 5.437 6.625 4.923 6.733 10.538 15.462 10 24h2l.621 3.684.817 4.754.408 2.431c.357 3.886.357 3.886 2.154 7.131.087 1.635.107 3.273.098 4.91l-.01 2.998-.025 3.154-.014 3.167q-.018 3.885-.049 7.771h-2l1 2c.187 1.878.322 3.76.43 5.645l.222 3.494q.22 3.609.422 7.218c.672 10.304 1.866 20.487 6.926 29.643v3h2a68 68 0 0 1 2.5 4.063c4.171 6.465 10.177 11.199 17.625 13.375L159 645v2c11-.161 19.196-1.08 27.875-8.437 3.019-3.641 5.621-7.052 7.125-11.563h2c.815-4.655 1.434-9.31 2-14h2l-.254-1.723c-.665-5.043-.703-9.28.254-14.277h-2l-.168-3.68q-.313-6.83-.632-13.66l-.27-5.886c.783-16.398.783-16.398-2.93-30.774-.213-2.371-.37-4.748-.5-7.125-.208-3.75-.43-7.42-1-11.133-.827-6.186-.897-12.411-1.105-18.644l-.114-3.02-.092-2.737c-.108-2.495-.108-2.495-1.189-5.341-1.19-8.5-1.304-17.14-1.558-25.71q-.104-3.373-.223-6.745-.068-2.161-.133-4.322l-.124-3.914c.032-2.755.297-4.708 1.038-7.309q.178-2.239.246-4.484l.1-2.586q.09-2.657.172-5.313c.189-4.76.709-9.042 1.985-13.63.902-3.609 1.232-7.293 1.622-10.987l.262-2.348q.313-2.825.613-5.652h2l-.07-2.02c-.184-9.383 1.288-18.038 4.07-26.98l-2.598-.184c-5.838-.427-11.623-.875-17.402-1.816v-2l-3 1c-2.7-.559-2.7-.559-5.687-1.437l-3.012-.872L166 367v-2l-3.375-.437C159 364 159 364 157 363v-2l-2.812-.375C151 360 151 360 148 358v-2l-1.625-.187c-5.726-1.96-9.844-7.105-13.375-11.813-1.312-2.875-1.312-2.875-2-5h-2c-1.257-2.906-2-4.796-2-8h-2c-4.33-13.224-6.856-23.183-4-37h2l-.125-3.125c.12-3.743.774-6.412 2.125-9.875h2l.332-2.227c2.456-10.196 12.974-18.752 20.045-26.087a527 527 0 0 0 4.166-4.39l2.082-2.171 1.727-1.805c1.869-1.497 3.346-1.787 5.648-2.32a90 90 0 0 0 2-4l3-1c1.209-2 1.209-2 2-4h2l2-4h2l.813-1.937C176 225 176 225 179 224c1.209-2 1.209-2 2-4h2l2-4h2l.688-1.687c1.688-2.975 3.779-5.033 6.312-7.313h2l2-4h2l.688-1.687c1.688-2.975 3.779-5.033 6.312-7.313h2l2-4h2l2-4h2l.563-1.687c1.481-2.384 2.457-3.12 4.75-4.625 3.387-2.264 5.34-4.678 7.449-8.137 1.52-1.903 3.068-2.487 5.238-3.551 1.496-1.504 1.496-1.504 2.813-3.25 2.073-2.528 4.16-4.676 6.687-6.75a46.7 46.7 0 0 0 6.5-6.5c2.535-3.069 5.29-5.572 8.352-8.105 1.425-1.206 2.765-2.512 4.086-3.833 2.104-2.104 4.236-4.012 6.5-5.937 2.59-2.236 4.889-4.484 7.062-7.125 2.069-2.507 4.213-4.642 6.688-6.75C295.72 109.816 295.72 109.816 302 96h2l.438-3.875c.268-2.382.484-3.97 1.562-6.125h2l2-10h2l.688-3.75C314.61 63.6 318.38 55.527 323 48h2l.332-1.754C327.222 39.893 332.756 34.762 338 31a91 91 0 0 1 4-1l1-3 5-1v-2a565 565 0 0 1 4.625-1.937l2.602-1.09c6.384-2.24 12.83-2.218 19.523-2.285"/><path fill="#2a51e8" d="m422 48 1 2h2l2 8h2l.55 1.723c1.348 4.137 2.795 8.134 4.555 12.117 1.286 3.103 2.438 6.253 3.582 9.41l1.325 3.64C440 88 440 88 440 91h2c1.316 3.62 2 6.096 2 10h2l.75 3.375c.838 3.642.838 3.642 3.188 4.875L452 110c1.019.981 2.016 1.985 3 3a400 400 0 0 0 4 3.5c5.26 4.543 5.26 4.543 7 6.5v2l1.625.688c6.125 3.384 10.854 8.723 15.688 13.687 2.154 2.104 4.335 4.05 6.625 6 3.202 2.765 5.885 5.68 8.566 8.941 2.055 2.314 4.394 4.188 6.777 6.153 2.324 2.07 4.211 4.416 6.188 6.812 1.568 1.76 3.213 3.22 5.031 4.719 3.043 2.51 5.465 5.245 7.969 8.281 2.067 2.32 4.407 4.205 6.8 6.176 2.388 2.129 4.349 4.537 6.376 7.004 1.593 1.809 3.415 3.122 5.355 4.539v2l3 1c2.188 1.938 2.188 1.938 4 4v2l1.625.688c4.96 2.74 8.461 6.29 11.941 10.695 2.359 2.66 5.117 4.85 7.86 7.101L573 227v2l1.688.625c3.172 1.886 4.99 4.53 7.312 7.375a487 487 0 0 0 4 3v2l1.688.625c3.172 1.886 4.99 4.53 7.312 7.375a487 487 0 0 0 4 3v2l1.793.777c3.923 2.174 6.396 5.794 9.207 9.223l2.008 2.422C617 273.607 617 273.607 617 277h2c1.498 3.371 2 5.204 2 9h2c2.857 11.808 5.714 28.572 0 40h-2l-1 8-3 1c-.61 1.857-.61 1.857-1 4a88 88 0 0 1-2 4h-2l-.312 1.938L611 347l-3 1c-1.209 2-1.209 2-2 4h-2l-1 3c-2.062.688-2.062.688-4 1v2c-5.625 3-5.625 3-9 3v2c-3.371 1.498-5.204 2-9 2v2c-8.429 2.286-8.429 2.286-13 2v2q-4.125.756-8.25 1.5l-2.355.434-2.286.41-2.094.38C551 374 551 374 547 374l.473 2.117.59 2.758.597 2.742C549 384 549 384 548 386h2c2.343 14.394 2.28 29.007 2.552 43.549q.079 4.03.167 8.06l.04 2.513c-.271 3.746-.271 3.746 1.241 6.878.089 2.739.115 5.453.098 8.191l-.005 2.485c-.005 2.629-.018 5.258-.03 7.887q-.009 2.666-.014 5.333-.017 6.552-.049 13.104h-2l.035 2.14c.063 7.11-.103 14.195-.41 21.298l-.094 2.58c-.223 4.715-.974 8.495-2.531 12.982l1 3-1 1a284 284 0 0 0-.812 7.938C546.589 551.395 543.74 567.7 541 584h-2l-.184 3.07-.254 4.055-.119 2.016c-.255 4.01-.71 7.909-1.443 11.859h-2l1 3c-.852 8.807-2.484 17.883-5 26.375-1.418 5.14-2.187 10.36-3 15.625h-2l.07 1.695c.17 7.575-.865 14.839-2.07 22.305h-2l.035 3c.098 12.01.098 12.01-.535 16.25-1.793 13.451-1.22 28.758 7.105 39.898 4.998 6.112 9.526 8.784 17.395 9.852q3.499.134 7 .125l3.563.008c3.234-.125 6.262-.523 9.437-1.133v-2c1.863-1.332 1.863-1.332 4.313-2.812 3.684-2.351 5.702-4.219 7.687-8.188h2l2-7h2l2-9h2l.184-2.555.254-3.32.246-3.305C589 701 589 701 590 699h2l.06-2.06c.096-3.126.206-6.252.315-9.378l.094-3.24c.305-8.313 1.37-15.617 4.531-23.322.729-2.655 1.364-5.32 2-8h2l.438-2.812C602 647 602 647 603 644h2l.375-1.75c.64-2.301 1.418-4.191 2.625-6.25l2-1 .938-1.875c1.13-2.261 2.216-3.415 4.062-5.125l2.438-2.437L620 623l2-2.125c2.19-2.053 4.386-3.408 7-4.875l2.625-1.687C634 613 634 613 637 613v-2c9.41-3.444 9.41-3.444 14-3v-2c9.749-2.107 19.008-3.323 29-2.812l2.565.128c5.93.39 11.637 1.393 17.435 2.684v2l2.375.438C705 609 705 609 707 610v2l3 1c.688 2.063.688 2.063 1 4h2c2.734 4.003 2.295 8.287 2.25 12.938l.023 2.42c-.017 5.233-.241 9.385-3.894 13.443l-1.817 1.511-1.808 1.551C706 650 706 650 703 650v2c-7.915 2.188-15.385 2.234-23.562 2.125l-3.924-.027q-4.758-.036-9.514-.098v2l-3.187 1.25C655.39 660.482 652.52 664.96 649 672h-2a6560 6560 0 0 0-1.79 12.954 730 730 0 0 0-2.683 22.32c-.57 4.028-1.477 7.798-2.527 11.726h-2l.125 3c.017 4.238-.983 7.932-2.125 12h-2l-.437 2.75c-.427 2.465-.914 4.838-1.563 7.25h-2l-.375 2.25c-.58 2.551-1.362 4.477-2.625 6.75h-2l-.312 2.313c-.764 2.986-1.485 3.654-3.688 5.687a791 791 0 0 0-3 5c-2.062 2.813-2.062 2.813-4 5h-2l-2 4h-2v2l-1.875.813C603.7 778.956 603.7 778.956 602 782c-2.64 1.618-3.84 2-7 2v2l-6 2v2c-3.877 1.193-6.916 2-11 2v2l-3.027.621-3.91.817-3.903.808c-3.006.426-3.006.426-4.16 1.754-1.842.1-3.687.13-5.531.133l-3.395.004-3.574-.012-3.574.012-3.395-.004-3.138-.004C538 798 538 798 537 797a303 303 0 0 0-8.562-1.562l-2.444-.42q-2.996-.514-5.994-1.018v-2l-9-2v-2l-2.375-.437C506 787 506 787 504 786v-2l-2.437-.812L499 782l-1-3-2-.5-2-.5-1-3c-2-1.209-2-1.209-4-2v-2l-3-1-1-4-3-1c-1.648-2.602-2-3.862-2-7h-2c-4.854-10.437-4.854-10.437-6.75-15.625-.908-3.172-.908-3.172-2.25-4.375a71 71 0 0 1-.5-4.125c-.273-2.763-.597-5.447-1.062-8.187-.621-5.232-.516-10.427-.438-15.688h-2v-20h2l-.035-3.402c-.082-11.119.28-21.752 3.035-32.598l1-1c.273-1.547.49-3.105.684-4.664l.373-2.902.75-6.047c.685-5.319 1.682-10.232 3.193-15.387.456-2.74.766-5.489 1.063-8.25.815-7.383.815-7.383 1.937-10.75q.38-2.276.684-4.562l.373-2.665q.38-2.772.75-5.546l.377-2.664.33-2.434C482 585 482 585 484 582c.389-2.827.389-2.827.5-6 .545-8.592 1.943-16.78 4.5-25h-2v2l-4 1 1-4h4v-3h3v-2c1.398-1.156 1.398-1.156 3.375-2.5 7.001-5.08 13.28-10.991 17.625-18.5l5-5c3.883-4.662 6.985-9.561 9.844-14.902 1.55-2.813 3.375-5.427 5.156-8.098 4.82-8.838 7.916-18.453 11-28h2l-.062-3.25c.048-2.898.194-5.036 1.062-7.75h2l.184-3.29.254-4.335.119-2.16.127-2.13.11-1.935c.206-2.15.206-2.15.731-5.01.49-3.243.514-6.183.39-9.456l-.134-3.565-.156-3.682-.133-3.693c-.199-5.037-.448-9.807-1.492-14.744q-.027-2.5.063-5c.051-3.902-.51-6.407-2.063-10v-7a111 111 0 0 0-2-4q-.703-2.195-1.297-4.422l-.707-2.582-.746-2.746c-2.2-7.892-4.713-15.527-7.684-23.156-1.815-4.675-3.434-9.415-5.066-14.156-2.046-5.922-4.188-11.766-6.562-17.563-2.537-6.204-4.715-12.477-6.759-18.86-1.503-4.655-3.213-9.182-5.054-13.714-2.001-4.984-3.885-10.012-5.785-15.035q-1.096-2.898-2.194-5.794a2665 2665 0 0 1-6.702-17.85c-2.521-6.8-5.245-13.493-8.046-20.18a118 118 0 0 1-4.68-13.61c-.792-2.572-1.783-4.983-2.843-7.457-3.464-8.103-6.466-16.377-9.543-24.633a2065 2065 0 0 0-6.457-17.054A1570 1570 0 0 1 456.313 138c-4.578-12.506-4.578-12.506-9.508-24.875l-1.118-2.687-.988-2.317C444 106 444 106 444 102h-2l-.75-3.062c-.774-2.75-1.768-5-3.25-7.438-2.035-3.379-3.009-6.668-4-10.5a467 467 0 0 0-2.414-6.887C431 72 431 72 431 68h-2l-2-9h-3z"/><path fill="#264de5" d="M278 563c4.689.546 8 1.865 12.125 4.125 13.917 7.295 29.847 12.714 45.5 14.438C339 582 339 582 342 584c2.348.303 4.71.498 7.074.633l2.072.126c2.18.13 4.36.248 6.541.366l4.44.262q5.436.32 10.873.613l1-2 1.941.523c4.065.634 7.905.37 11.997.102l2.38-.133c4.295-.259 8.437-.767 12.682-1.492q3.03-.18 6.063-.312c7.078-.522 13.257-2.384 19.937-4.688q1.916-.621 3.836-1.234c6.18-1.99 12.204-4.112 18.101-6.848 9.771-4.349 9.771-4.349 14.063-2.918l-5 1-.371 3.652c-.704 6.333-1.706 12.617-2.692 18.91l-.564 3.635Q455.689 598.6 455 603h-2l-.148 2.027c-.976 12.527-2.08 24.934-5.168 37.141-.708 2.931-1.203 5.856-1.684 8.832q-.449 2.13-.937 4.25c-1.11 4.9-2.096 9.82-3.063 14.75h-2l-.184 2.598c-1.125 15.358-1.125 15.358-3.21 22.242-1.127 4.02-2 8.102-2.922 12.172a217 217 0 0 1-1.176 4.93c-.762 3.087-1.408 6.198-2.07 9.308l-.817 3.828L429 728h-2l.125 2.563c-.14 3.86-.953 6.774-2.125 10.437h-2l.188 2.813c0 7.403-2.931 14.67-5.305 21.605a812 812 0 0 0-2.724 8.151c-3.114 9.42-3.114 9.42-4.846 13.931-1.355 3.469-1.355 3.469-2.313 7-.901 3.154-1.968 6.188-3.14 9.25a652 652 0 0 0-2.985 8l-1.008 2.734A63 63 0 0 0 399 821h-2l-.324 3.492c-.564 4.485-1.858 8.434-3.488 12.633l-.752 2.05c-2.698 7.097-6.243 12.402-12.436 16.825-2.875.813-2.875.813-5 1v2c-6.353 1.694-13.647 1.694-20 0v-2l-1.812-.437c-4.943-1.272-7.404-3.332-10.188-7.563-.812-2.875-.812-2.875-1-5h-2c-1.158-3.677-1.133-7.163-1.125-11l-.008-3.687c.107-2.66.34-4.795 1.133-7.313h2l.375-3.062c.606-3.817 1.497-7.253 2.625-10.938h2l.438-3.75c.349-2.815.766-5.52 1.562-8.25h2l.332-1.871c.967-5.164 2.2-10.055 3.938-15.012 1.037-3.007 1.882-6.052 2.73-9.117h2l.184-1.828.253-2.422.247-2.39c.292-2.184.737-4.237 1.316-6.36h2l.184-1.828.253-2.422.247-2.39c.292-2.184.737-4.237 1.316-6.36h2l.375-3.937c.667-5.987 1.944-11.72 3.625-17.5 1.036-3.69 1.763-7.364 2.438-11.133C375 709 375 709 376 706.535c1.055-2.675 1.55-5.137 2-7.972.464-2.916 1-5.56 1.96-8.356 1.292-3.983 1.98-7.958 2.665-12.082l.406-2.375q.49-2.874.969-5.75h2l-.07-2.09c-.122-6.332.463-11.785 2.07-17.91h2l-.555-1.68c-.532-2.774-.157-4.687.43-7.445.933-4.66 1.513-9.24 1.879-13.977C392 625 392 625 393 624c1.585-9.262 2.4-18.629 3-28h2l1-8-2.148.212c-7.818.719-15.566.98-23.414.976h-3.682c-11.214-.071-22.846-.324-33.756-3.188l-.076 3.45q-.144 6.435-.296 12.87-.065 2.768-.125 5.534c-.237 10.745-.588 21.434-1.503 32.146h-2l.533 3.04c.467 3.96.34 7.36-.056 11.32l-.2 2.033q-.207 2.107-.428 4.215c-.225 2.15-.436 4.3-.646 6.45-1.05 10.48-1.05 10.48-2.203 13.942-.35 1.916-.67 3.838-.973 5.762l-.537 3.388-.553 3.538-.564 3.572q-.69 4.37-1.373 8.74h-2l.125 2.938c.018 4.51-1.02 8.71-2.125 13.062h-2l-.184 1.828-.253 2.422-.247 2.39c-.292 2.184-.737 4.237-1.316 6.36h-2l-.184 1.863-.253 2.45-.247 2.425C314 744 314 744 313 747h-2l-.309 2.477c-.82 4.182-2.21 7.937-3.753 11.898l-.854 2.23q-1.036 2.7-2.084 5.395h-2l-2 8h-2l-.25 2c-1.626 6.503-5.433 12.312-8.7 18.117A97 97 0 0 0 287 801h-2l-.812 3.438L283 808l-3 1-.437 2.375C279 814 279 814 278 816h-2l-2 6h-2l-.687 2.25c-1.581 3.312-3.268 4.745-6.313 6.75h-3v2c-3.821 1.228-7.512 1.133-11.5 1.125l-3.969.008c-2.753-.104-4.935-.298-7.531-1.133v-2l-2.125-.187c-4.509-1.275-7.712-4.015-10.25-7.938C226 821 226 821 226 818h-2c-1.281-6.407-1.598-12.606 0-19h2l1-7 3-1 .375-2.25c.58-2.551 1.362-4.477 2.625-6.75h2l.34-1.703c.75-2.612 1.872-4.692 3.222-7.047l1.38-2.422L241 769h2l.375-2.187c.615-2.77 1.51-5.21 2.625-7.813h2l.438-2.875C249 753 249 753 250 751h2l2-9h2l.332-1.941c.992-5.413 2.424-10.01 4.668-15.059.765-2.652 1.386-5.307 2-8h2c.09-.888.09-.888.184-1.793.436-4.117.903-8.162 1.816-12.207h2c.09-1.16.09-1.16.184-2.344.475-5.908 1.025-11.781 1.816-17.656h2l-1-3c.3-2.054.3-2.054.867-4.43 1.27-5.871 1.794-11.713 2.258-17.695l.262-3.187q.315-3.844.613-7.688h2l-.016-2.708c-.081-16.1-.061-32.155.656-48.243.304-6.998.47-13.982.485-20.986l.014-2.658c-.008-3.383-.062-6.174-1.139-9.405"/><path fill="#305bee" d="m191 421 1 3h2l1-2 .38 2.927c3.14 28.998 3.14 28.998 12.708 56.263 1.056 2.095 1.875 4.226 2.662 6.435 2.018 5.224 4.743 9.936 7.608 14.729C221 506.806 221 506.806 221 509h2l.813 1.813c1.2 2.212 2.416 3.424 4.187 5.187a147 147 0 0 1 3.188 4.063l1.605 2.097C234 524 234 524 234 526l3 1c1.543 1.602 1.543 1.602 3.188 3.625 3.134 3.73 6.506 6.795 10.308 9.832C252 542 252 542 252 545h-2v16h2c3.994 60.647 3.994 60.647-2 75-.41 1.595-.788 3.2-1.125 4.813l-.508 2.394L248 645h-2l-2 9h-2l-.25 2.625c-.883 3.975-2.33 6.105-4.75 9.375l-1.527 2.121c-4.18 5.732-4.18 5.732-6.473 6.879l-.875 2-1.125 2q-1.99.544-4 1l-1 3c-1.96 1.605-1.96 1.605-4.375 3.188l-2.398 1.605C213 689 213 689 210 689l-1 3-6 1v2c-4.537 1.452-8.18 2.235-13 2v2c-15.323 2.939-29.707 2.278-45 0v-2l-1.863-.184-2.45-.254c-.8-.08-1.6-.162-2.425-.246C136 696 136 696 133 695v-2l-2.812-.437C127 692 127 692 124 691v-2l-2.621-.73c-3.715-1.396-6.3-3.17-9.442-5.582l-3.035-2.301c-2.83-2.327-5.432-4.681-7.902-7.387v-2l-1.828-.75c-2.53-1.456-3.44-2.761-4.922-5.25l-1.297-2.125C92 661 92 661 92 659h-2l-.875-2.437c-.858-2.696-.858-2.696-3.125-3.563-1.627-3.345-2-5.188-2-9h-2a528 528 0 0 1-1.562-4.875l-.88-2.742C79 634 79 634 80 632h-2l-.621-3.43-.817-4.445-.408-2.262c-.7-4.048-.7-4.048-2.154-7.863-.03-2.406.067-4.795.16-7.2-.053-2.926-.053-2.926-1.187-6.085-1.151-4.396-.989-7.985-.598-12.465l.336-4.484L73 580c0-4.566-.155-9.124-.312-13.687l-.069-2.936C72.232 552.973 68.998 544.861 62 537c-6.892-4.983-14.6-5.189-22.812-5.562l-2.678-.131q-3.255-.158-6.51-.307v-2l-3.312-.437C23 528 23 528 20 527l-1-2-3-1c-.687-2.062-.687-2.062-1-4h-2c-1.604-3.508-2.22-6.144-2-10H9v-9h2l.438-3.375C12 494 12 494 13 492h2l2-4h2l1-3c3.604-1.522 6.052-2 10-2v-2c5.17-1.151 10.1-1.184 15.375-1.187l2.79-.038c5.381-.011 9.737.513 14.835 2.225q2.151.462 4.313.875c9.316 2.05 17.456 6.43 25.687 11.125v2l2.438.813L98 498l1 3 4 1c1.379 1.523 1.379 1.523 2.563 3.375 1.631 2.514 3.319 4.512 5.437 6.625 4.923 6.733 10.538 15.462 10 24h2l.621 3.684.817 4.754.408 2.431c.357 3.886.357 3.886 2.154 7.131.087 1.635.107 3.273.098 4.91l-.01 2.998-.025 3.154-.014 3.167q-.018 3.885-.049 7.771h-2l1 2c.187 1.878.322 3.76.43 5.645l.222 3.494q.22 3.609.422 7.218c.672 10.304 1.866 20.487 6.926 29.643v3h2a68 68 0 0 1 2.5 4.063c4.171 6.465 10.177 11.199 17.625 13.375L159 645v2c11-.161 19.196-1.08 27.875-8.437 3.019-3.641 5.621-7.052 7.125-11.563h2c.815-4.655 1.434-9.31 2-14h2l-.254-1.723c-.665-5.043-.703-9.28.254-14.277h-2l-.168-3.68q-.313-6.83-.632-13.66l-.27-5.886c.783-16.398.783-16.398-2.93-30.774-.213-2.371-.37-4.748-.5-7.125-.208-3.75-.43-7.42-1-11.133-.827-6.186-.897-12.411-1.105-18.644l-.114-3.02-.092-2.737c-.108-2.495-.108-2.495-1.189-5.341-1.19-8.5-1.304-17.14-1.558-25.71q-.104-3.373-.223-6.745-.068-2.161-.133-4.322l-.124-3.914c.032-2.756.296-4.707 1.038-7.309q.194-2.274.281-4.555l.114-2.613.105-2.707c.214-5.452.437-10.757 1.5-16.125"/><path fill="#1743d5" d="m422 48 1 2h2l2 8h2l.55 1.723c1.348 4.137 2.795 8.134 4.555 12.117 1.286 3.103 2.438 6.253 3.582 9.41l1.325 3.64C440 88 440 88 440 91h2c1.316 3.62 2 6.096 2 10h2l.75 3.375c.838 3.642.838 3.642 3.188 4.875L452 110c1.019.981 2.016 1.985 3 3a400 400 0 0 0 4 3.5c5.26 4.543 5.26 4.543 7 6.5v2l1.625.688c6.125 3.384 10.854 8.723 15.688 13.687 2.154 2.104 4.335 4.05 6.625 6 3.202 2.765 5.885 5.68 8.566 8.941 2.055 2.314 4.394 4.188 6.777 6.153 2.324 2.07 4.211 4.416 6.188 6.812 1.568 1.76 3.213 3.22 5.031 4.719 3.043 2.51 5.465 5.245 7.969 8.281 2.067 2.32 4.407 4.205 6.8 6.176 2.388 2.129 4.349 4.537 6.376 7.004 1.593 1.809 3.415 3.122 5.355 4.539v2l3 1c2.188 1.938 2.188 1.938 4 4v2l1.625.688c4.96 2.74 8.461 6.29 11.941 10.695 2.359 2.66 5.117 4.85 7.86 7.101L573 227v2l1.688.625c3.172 1.886 4.99 4.53 7.312 7.375a487 487 0 0 0 4 3v2l1.688.625c3.172 1.886 4.99 4.53 7.312 7.375a487 487 0 0 0 4 3v2l1.793.777c3.923 2.174 6.396 5.794 9.207 9.223l2.008 2.422C617 273.607 617 273.607 617 277h2c1.498 3.371 2 5.204 2 9h2c2.857 11.808 5.714 28.572 0 40h-2l-1 8-3 1c-.61 1.857-.61 1.857-1 4a88 88 0 0 1-2 4h-2l-.312 1.938L611 347l-3 1c-1.209 2-1.209 2-2 4h-2l-1 3c-2.062.688-2.062.688-4 1v2c-5.625 3-5.625 3-9 3v2c-3.371 1.498-5.204 2-9 2v2c-8.429 2.286-8.429 2.286-13 2v2q-4.125.756-8.25 1.5l-2.355.434-2.286.41-2.094.38C551 374 551 374 547 374l.473 2.117.59 2.758.597 2.742C549 384 549 384 548 386h2c2.343 14.394 2.28 29.007 2.552 43.549q.079 4.03.167 8.06l.04 2.513c-.271 3.746-.271 3.746 1.241 6.878.089 2.739.115 5.453.098 8.191l-.005 2.485c-.005 2.629-.018 5.258-.03 7.887q-.009 2.666-.014 5.333-.017 6.552-.049 13.104h-2l.035 2.422A207 207 0 0 1 551 509l-3-1c-1.149-3.446-.804-5.099-.125-8.625l.555-2.977C549 494 549 494 550 493c.26-1.66.459-3.329.625-5 .095-.908.19-1.815.29-2.75.027-.743.056-1.485.085-2.25l-1-1a81 81 0 0 1-.316-4.691l-.127-2.862-.12-3.01-.13-3.021q-.16-3.708-.307-7.416l-2 1 .184-1.8a972 972 0 0 0 1.535-16.56c.281-2.64.281-2.64.804-5.41.484-3.275.517-6.242.391-9.546l-.133-3.565-.156-3.682-.133-3.693c-.199-5.037-.448-9.807-1.492-14.744q-.027-2.5.063-5c.051-3.902-.51-6.407-2.063-10v-7a111 111 0 0 0-2-4q-.703-2.195-1.297-4.422l-.707-2.582-.746-2.746c-2.2-7.892-4.713-15.527-7.684-23.156-1.815-4.675-3.434-9.415-5.066-14.156-2.046-5.922-4.188-11.766-6.562-17.563-2.537-6.204-4.715-12.477-6.759-18.86-1.503-4.655-3.213-9.182-5.054-13.714-2.001-4.984-3.885-10.012-5.785-15.035q-1.096-2.898-2.194-5.794a2665 2665 0 0 1-6.702-17.85c-2.521-6.8-5.245-13.493-8.046-20.18a118 118 0 0 1-4.68-13.61c-.792-2.572-1.783-4.983-2.843-7.457-3.464-8.103-6.466-16.377-9.543-24.633a2065 2065 0 0 0-6.457-17.054A1570 1570 0 0 1 456.313 138c-4.578-12.506-4.578-12.506-9.508-24.875l-1.118-2.687-.988-2.317C444 106 444 106 444 102h-2l-.75-3.062c-.774-2.75-1.768-5-3.25-7.438-2.035-3.379-3.009-6.668-4-10.5a467 467 0 0 0-2.414-6.887C431 72 431 72 431 68h-2l-2-9h-3z"/><path fill="#326df3" d="M297 107c2 3 2 3 1.625 6.188L298 116h-2l-.625 3.5c-1.16 5.252-3.05 10.183-4.984 15.187-2.299 5.97-4.292 12.006-6.215 18.106-1.112 3.033-2.476 5.476-4.176 8.207a234 234 0 0 0-2.059 6.086c-5.601 17.34-5.601 17.34-9.503 25.476-2.39 5.022-3.971 10.15-5.563 15.461-1.562 5.146-3.482 10.04-5.621 14.977-1.883 4.506-3.46 9.112-5.078 13.719a175 175 0 0 1-3.051 7.906c-2.051 5.016-3.795 10.129-5.562 15.25-2.244 6.487-4.62 12.855-7.32 19.168-4.303 10.242-7.9 20.692-11.151 31.31-1.523 4.96-3.227 9.805-5.092 14.647h-2l-.36 2.633c-.634 3.334-1.604 6.108-2.89 9.242a203 203 0 0 0-5.312 15.188l-.628 2.033q-1.462 4.756-2.908 9.517l-1.027 3.262-.883 2.867C203 372 203 372 200 374c-2.177-.048-2.177-.048-4.668-.46-1.339-.214-1.339-.214-2.705-.43l-2.815-.485-2.85-.46A780 780 0 0 1 180 371v-2l-3 1c-2.7-.559-2.7-.559-5.687-1.437l-3.012-.872L166 367v-2l-3.375-.437C159 364 159 364 157 363v-2l-2.812-.375C151 360 151 360 148 358v-2l-1.625-.187c-5.726-1.96-9.844-7.105-13.375-11.813-1.312-2.875-1.312-2.875-2-5h-2c-1.257-2.906-2-4.796-2-8h-2c-4.33-13.224-6.856-23.183-4-37h2l-.125-3.125c.12-3.743.774-6.412 2.125-9.875h2l.332-2.227c2.456-10.196 12.974-18.752 20.045-26.087a527 527 0 0 0 4.166-4.39l2.082-2.171 1.727-1.805c1.869-1.497 3.346-1.787 5.648-2.32a90 90 0 0 0 2-4l3-1c1.209-2 1.209-2 2-4h2l2-4h2l.813-1.937C176 225 176 225 179 224c1.209-2 1.209-2 2-4h2l2-4h2l.688-1.687c1.688-2.975 3.779-5.033 6.312-7.313h2l2-4h2l.688-1.687c1.688-2.975 3.779-5.033 6.312-7.313h2l2-4h2l2-4h2l.563-1.687c1.481-2.384 2.457-3.12 4.75-4.625 3.387-2.264 5.34-4.678 7.449-8.137 1.52-1.903 3.068-2.487 5.238-3.551 1.496-1.504 1.496-1.504 2.813-3.25 2.073-2.528 4.16-4.676 6.687-6.75a46.7 46.7 0 0 0 6.5-6.5c2.535-3.069 5.29-5.572 8.352-8.105 1.425-1.206 2.765-2.512 4.086-3.833 2.104-2.104 4.236-4.012 6.5-5.937 2.59-2.236 4.889-4.484 7.062-7.125 2.67-3.24 5.637-5.877 8.832-8.59 3.909-3.444 7.524-7.19 11.168-10.91"/><path fill="#16171b" d="M309.375 416.625C320.028 421.659 327.529 427.912 332 439c2.15 8.602 1.633 17.89-2.445 25.805-3.469 5.739-7.076 10.312-12.555 14.195l-2.375 1.75c-8.614 4.102-19.265 5.079-28.29 2-9.326-4.07-16.254-9.995-20.835-19.187-3.286-9.49-3.2-21.129 1-30.25 4-6.828 9.523-11.64 16.5-15.313l2.695-1.55c7.197-3.157 16.376-2.561 23.68.175"/><path fill="#15161b" d="M441 415h17l1 3c1.86.585 1.86.585 4 1 8.586 4.51 14.352 10.504 17.625 19.77 1.583 9.416 1.764 20.072-3.625 28.23l-1.426 2.172C470 477.067 463.221 481.207 454 484c-9.422 1.298-19.458-.176-27.312-5.75A109 109 0 0 1 423 475l-1.684-1.453c-6.162-6.086-8.398-15.71-8.753-24.172.489-8.738 2.583-16.77 8.437-23.375h2l.563-1.75c2.098-3.285 4.888-4.861 8.437-6.25 2.997-.576 5.953-.862 9-1z"/><path fill="#295bdb" d="M665.305 173.18c4.394 4.718 5.911 9.967 6.258 16.32-.22 5.805-2.223 9.836-5.563 14.5l-1.687 2.375c-5.884 4.135-13.278 5.407-20.313 4.625-5.853-1.86-10.713-4.608-15-9-1.25-2.687-1.25-2.687-2-6l-.695-2.29c-1.629-6.045-1.149-9.546 1.75-15.093L629 177h2l.688-1.75c2.187-3.75 4.554-5.694 8.734-7.016 9.27-2.042 17.432-1.298 24.883 4.946"/><path fill="#295bd9" d="M91.938 417.313c4.905 2.702 4.905 2.702 7.062 4.687v2h2c2.55 3.856 2.367 7.916 2.375 12.375l.074 2.25c.029 5.36-.947 8.274-4.449 12.375h-2v2c-6.592 3.767-13.544 3.873-21 3-6.231-2.476-9.74-6.222-13-12-2.104-6.823-.745-12.58 2-19h2l.258-1.828c1.223-3.58 3.833-4.518 7.07-6.188 5.758-2.12 11.913-1.952 17.61.329"/><path fill="#265bdc" d="M623 54c4.138 3.34 6.311 6.639 7.063 11.938.26 6.59-1.308 11-5.563 16-4.289 3.147-9.337 3.318-14.5 3.062-4.914-1.006-8.924-2.94-12-7-1.18-3.471-1.167-6.856-1.187-10.5l-.043-3.406c.278-3.744 1.218-5.842 3.543-8.719C606.33 50.472 616.277 50.485 623 54"/><path fill="#2152d1" d="M631 542c6.73-.497 12.583-.443 18 4 3.94 5.032 4.444 9.783 4 16h-2l-.187 2.188c-1.075 3.719-2.87 5.36-5.813 7.812h-3v2c-8.488 1.439-8.488 1.439-13-1l-2.562-1.187c-4.038-3.003-6.047-6.35-6.825-11.247-.266-6.032.838-9.698 4.387-14.566 3-2 3-2 7-2z"/><path fill="#3e7ff5" d="M281 612h1q.291 4.125.563 8.25l.17 2.355.146 2.286.143 2.094c-.024 2.164-.472 3.928-1.022 6.015a84 84 0 0 0-.316 4.125l-.127 2.375-.12 2.5-.13 2.558a247 247 0 0 0-.245 17.387C281 664 281 664 280 665c-.285 2.189-.448 4.378-.621 6.578-.424 2.707-1.36 4.882-2.379 7.422a177 177 0 0 0-1.5 6.938l-.388 1.961c-1.113 5.762-1.893 11.543-2.585 17.37C272 708 272 708 270 710a136 136 0 0 0-1.875 7.313 1419 1419 0 0 1-1.606 6.6c-2.163 8.699-5.103 16.65-9.011 24.686-2.119 4.4-3.704 8.72-4.903 13.448C252 764 252 764 250 767l-.898 2.758c-1.232 3.624-2.88 6.766-4.727 10.117l-1.914 3.492L241 786l-5-1c-2.489 3.567-4.55 6.89-6 11l-2-2v-3h2l.375-2.25c.58-2.551 1.362-4.477 2.625-6.75h2l.34-1.703c.75-2.612 1.872-4.692 3.222-7.047l1.38-2.422L241 769h2l.375-2.187c.615-2.77 1.51-5.21 2.625-7.813h2l.438-2.875C249 753 249 753 250 751h2l2-9h2l.332-1.941c.992-5.413 2.424-10.01 4.668-15.059.765-2.652 1.386-5.307 2-8h2c.09-.888.09-.888.184-1.793.436-4.117.903-8.162 1.816-12.207h2c.09-1.16.09-1.16.184-2.344.475-5.908 1.025-11.781 1.816-17.656h2l-1-3c.3-2.054.3-2.054.867-4.43 1.27-5.871 1.794-11.713 2.258-17.695l.262-3.187q.315-3.844.613-7.688h2l-.035-2.754c-.066-9.135.312-18.138 1.035-27.246h2z"/><path fill="#2759d6" d="m603.875 120.813 3.117-.043c3.11.238 5.25.785 8.008 2.23 1.313 2.625 1.313 2.625 2 5h2c1.96 5.882 1.616 10.432-1.062 15.938-2.13 3.562-2.535 3.95-6.75 5.125L608 149v2c-7.319.514-11.146-.788-16.875-5.562-2.406-3.075-2.26-6.208-2.25-9.938l-.008-2.906c.264-5.144 2.423-7.237 6.133-10.594 3.175-1.058 5.54-1.167 8.875-1.187"/><path fill="#5596fa" d="M295 112c-1.56 3.74-3.87 6.115-6.727 8.957l-1.413 1.412q-1.482 1.478-2.97 2.948a1021 1021 0 0 0-4.464 4.443c-4.769 4.75-9.604 9.367-14.715 13.749-2.431 2.119-4.698 4.382-6.961 6.679l-2.453 2.48L253 155a2882 2882 0 0 1-4 4l-2.5 2.5-2.5 2.5-2.187 2.313C240 168 240 168 238 168l-.758 1.785c-1.406 2.508-2.898 3.84-5.117 5.653-3.132 2.641-5.584 5.343-8.125 8.562a320 320 0 0 1-4.43 3.613c-2.249 1.986-4.047 4.275-5.882 6.64C212 196 212 196 209.19 197.844c-3.531 2.387-6.303 5.045-9.254 8.095l-1.525 1.552q-1.423 1.449-2.838 2.904c-3.958 4.038-7.984 8.01-11.992 11.999q-4.34 4.32-8.674 8.644l-4.555 4.535a5265 5265 0 0 0-6.626 6.604l-2.03 2.015a196 196 0 0 0-11.077 12.023c-2.16 2.382-4.566 4.367-7.05 6.4-2.148 1.896-3.792 4.147-5.57 6.386h-2l-2 5h-2l-1 6h-3c.279-10.87 12.906-20.526 20-28l2.633-2.797L153 246.75l2.063-2.14c2.05-1.704 3.383-2.06 5.937-2.61a90 90 0 0 0 2-4l3-1c1.209-2 1.209-2 2-4h2l2-4h2l.813-1.937C176 225 176 225 179 224c1.209-2 1.209-2 2-4h2l2-4h2l.688-1.687c1.688-2.975 3.779-5.033 6.312-7.313h2l2-4h2l.688-1.687c1.688-2.975 3.779-5.033 6.312-7.313h2l2-4h2l2-4h2l.563-1.687c1.481-2.384 2.457-3.12 4.75-4.625 3.387-2.264 5.34-4.678 7.449-8.137 1.52-1.903 3.068-2.487 5.238-3.551 1.496-1.504 1.496-1.504 2.813-3.25 2.073-2.528 4.16-4.676 6.687-6.75a46.7 46.7 0 0 0 6.5-6.5c2.535-3.069 5.29-5.572 8.352-8.105 1.425-1.206 2.765-2.512 4.086-3.833 2.104-2.104 4.236-4.012 6.5-5.937 3.176-2.743 5.832-5.63 8.492-8.863 2.363-2.652 5.037-4.893 7.746-7.184 1.97-1.653 1.97-1.653 4.137-4.016C292 112 292 112 295 112"/><path fill="#3776f6" d="M389 663c.852 13.209-3.415 26.088-6.875 38.71-1.177 4.39-2.203 8.811-3.24 13.235-2.318 9.887-4.8 19.656-7.88 29.335-1.25 3.971-2.275 7.88-3.052 11.974-.664 3.48-1.51 6.497-2.953 9.746-1.212 3.178-2.384 6.372-3.562 9.563l-.96 2.576-.92 2.49-.834 2.252c-.75 2.093-.75 2.093-1.232 4.19C357 789 357 789 355.562 792.25c-1.365 3.09-2.144 6.148-2.894 9.445-.842 2.906-2.024 5.594-3.23 8.367-1.894 4.388-2.867 8.18-3.438 12.938l-1.562 2.875c-1.685 3.661-1.648 6.213-1.446 10.172C343 838 343 838 342 840h-3q-.04-3.375-.062-6.75l-.036-3.797c.078-2.738.27-4.872 1.098-7.453h2l.375-3.062c.606-3.817 1.497-7.253 2.625-10.938h2l.438-3.75c.349-2.815.766-5.52 1.562-8.25h2l.332-1.871c.967-5.164 2.2-10.055 3.938-15.012 1.037-3.007 1.882-6.052 2.73-9.117h2l.184-1.828.253-2.422.247-2.39c.292-2.184.737-4.237 1.316-6.36h2l.184-1.828.253-2.422.247-2.39c.292-2.184.737-4.237 1.316-6.36h2l.375-3.937c.667-5.987 1.944-11.72 3.625-17.5 1.036-3.69 1.763-7.364 2.438-11.133C375 709 375 709 376 706.535c1.055-2.675 1.55-5.137 2-7.972.464-2.916 1-5.56 1.96-8.356 1.292-3.983 1.98-7.958 2.665-12.082l.406-2.375q.49-2.874.969-5.75h2v-6c2-1 2-1 3-1"/><path fill="#143ee3" d="M489 551h2c2.612 4.763 1.986 8.865 1 14-.875 3-.875 3-2 5l-3 1 .484 1.676c.568 2.556.72 4.893.766 7.511l.078 2.668c-.291 2.79-.822 4.772-1.75 7.383-1.718 4.873-2.446 9.65-3.078 14.762q-.37 2.78-.746 5.559l-.375 2.773c-.755 5.312-1.732 10.584-2.692 15.863-.77 4.26-1.475 8.527-2.16 12.801a269 269 0 0 1-1.457 7.57c-4.182 20.804-6.482 41.749-5.96 62.985C470 716 470 716 468 719h2l-1 3h-2v-12h-2v-20h2l-.035-3.402c-.082-11.119.28-21.752 3.035-32.598l1-1c.273-1.547.49-3.105.684-4.664l.373-2.902.75-6.047c.685-5.319 1.682-10.232 3.193-15.387.456-2.74.766-5.489 1.063-8.25.815-7.383.815-7.383 1.937-10.75q.38-2.276.684-4.562l.373-2.665q.38-2.772.75-5.546l.377-2.664.33-2.434C482 585 482 585 484 582c.389-2.827.389-2.827.5-6 .545-8.592 1.943-16.78 4.5-25"/><path fill="#387ef8" d="M192 500c6.03 5.266 5.436 15.172 6 22.648l.244 3.037c.259 3.23.508 6.46.756 9.69l.526 6.698q.514 6.549 1.019 13.098c.365 4.717.754 9.432 1.158 14.145 3.5 41.592 3.5 41.592-1.703 58.684l-1.09 3.723A400 400 0 0 1 196 641l-3-1q-2.528 1.454-5 3h-3v-3l2.25-2.187c3.23-3.304 4.894-6.634 6.75-10.813h2c.815-4.655 1.434-9.31 2-14h2l-.254-1.723c-.665-5.043-.703-9.28.254-14.277h-2l-.168-3.68q-.313-6.83-.632-13.66l-.27-5.886c.783-16.398.783-16.398-2.93-30.774-.213-2.371-.37-4.748-.5-7.125-.21-3.772-.433-7.452-1.027-11.184-.627-4.892-.58-9.703-.536-14.629l.014-2.939q.018-3.561.049-7.123"/><path fill="#5094f4" d="m667 604 1 3-2.062.375C642.615 612.337 624.283 624.879 610 644a62 62 0 0 0-2.062 3.438l-.91 1.62L606 651l-1.465 2.633c-1.904 4.175-2.957 8.356-4.035 12.804-1.405 5.772-2.855 11.223-5.5 16.563l-2 1c-.265-8.338.832-15.277 4-23 .729-2.655 1.364-5.32 2-8h2l.438-2.812C602 647 602 647 603 644h2l.375-1.75c.64-2.301 1.418-4.191 2.625-6.25l2-1 .938-1.875c1.13-2.261 2.216-3.415 4.062-5.125l2.438-2.437L620 623l2-2.125c2.19-2.053 4.386-3.408 7-4.875l2.625-1.687C634 613 634 613 637 613v-2c9.41-3.444 9.41-3.444 14-3v-2c5.38-1.19 10.453-2.292 16-2"/><path fill="#2152d1" d="m188.5 756 1.5 1v2l3 1c1.74 3.481 1.453 7.194 1 11-1.015 2.846-2.144 4.525-4 7-2.965 1.096-5.859 1.164-9 1.188l-2.562.042c-2.688-.254-4.212-.709-6.438-2.23-2.267-3.214-2.27-6.141-2.25-10l-.016-3.125c.265-2.863.668-4.506 2.266-6.875 5.163-2.459 11.112-3.155 16.5-1"/><path fill="#1435e3" d="M332 598h1v8h2c.103 11.39.053 22.648-1 34h-2l.533 3.04c.467 3.96.34 7.36-.056 11.32l-.2 2.033q-.207 2.107-.428 4.215c-.225 2.15-.436 4.3-.646 6.45-1.05 10.48-1.05 10.48-2.203 13.942-.35 1.916-.67 3.838-.973 5.762l-.537 3.388-.553 3.538-.564 3.572q-.69 4.37-1.373 8.74h-2l.125 2.938c.018 4.51-1.02 8.71-2.125 13.062h-2l-.184 1.828-.253 2.422-.247 2.39c-.292 2.184-.737 4.237-1.316 6.36h-2l-.184 1.863-.253 2.45-.247 2.425C314 744 314 744 313 747h-2c-.378-6.83.249-11.727 3-18 1.103-3.308 2.05-6.646 3-10h2l-.625-3.375L318 712l2-2c.397-2.846.699-5.64.938-8.5.48-5.067.934-9.855 2.625-14.687 1.885-5.42 1.983-10.911 2.226-16.59C326 667 326 667 327 664l.68-5.926c.435-2.82 1.32-5.409 2.32-8.074l-1-1a92 92 0 0 1-.062-5.062l.027-2.786L329 639l2-1v-5h-1v-7h2l-.062-2.187c.062-2.813.062-2.813.625-5.5.682-2.328.682-2.328-.563-4.313h2l-1-2.375c-1.274-4.619-1.17-8.867-1-13.625"/><path fill="#4d8ff9" d="M263 720h2c-.459 11.453-3.461 21.488-8.836 31.578-1.598 3.325-2.557 6.732-3.488 10.293C252 764 252 764 250 767l-.898 2.758c-1.232 3.624-2.88 6.766-4.727 10.117l-1.914 3.492L241 786l-5-1c-2.489 3.567-4.55 6.89-6 11l-2-2v-3h2l.375-2.25c.58-2.551 1.362-4.477 2.625-6.75h2l.34-1.703c.75-2.612 1.872-4.692 3.222-7.047l1.38-2.422L241 769h2l.375-2.187c.615-2.77 1.51-5.21 2.625-7.813h2l.438-2.875C249 753 249 753 250 751h2l2-9h2l.332-1.941c.997-5.438 2.317-10.063 4.668-15.059a605 605 0 0 0 2-5"/><path fill="#153be2" d="M250 561h2c3.994 60.647 3.994 60.647-2 75-.41 1.595-.788 3.2-1.125 4.813l-.508 2.394L248 645h-2l-2 9h-2l-.25 2.625c-1.376 6.193-5.235 10.11-9.75 14.375v-2l-2-1 1.25-1.5c2.323-3.319 3.994-6.857 5.75-10.5q1.057-2.19 2.125-4.375l.945-1.96C241 648 241 648 243 646c.61-2.524.61-2.524 1-5.375.54-3.573 1.078-6.53 3-9.625l2-1c.507-2.021.507-2.021.688-4.375l.261-2.398c.18-2.402.18-2.402-.949-5.227a100 100 0 0 1-.125-5.437l-.008-2.872c.119-2.4.535-4.38 1.133-6.691q-.476-2.505-1-5c-.227-4.003.018-7.405 1.063-11.25 1.269-3.65 1.269-3.65-.063-6.75-.34-3.032-.464-6.079-.625-9.125l-.156-2.535A191 191 0 0 1 249 562z"/><path fill="#133ec6" d="M654 168c6.196 1.363 10.719 3.49 14.262 8.941 2.983 5.852 3.83 11.574 2.738 18.059-1.282 3.32-2.933 6.113-5 9l-1.687 2.375c-5.884 4.135-13.278 5.407-20.313 4.625-5.94-1.889-10.448-4.798-15-9 3.281-1.108 4.9-.892 8.063.438 5.97 2.12 12.244 2.913 18.308.695a67 67 0 0 0 3.973-2.16C661 200 661 200 664 199q.04-4.094.063-8.187l.025-2.33c.017-3.968-.102-7.609-1.088-11.483h-2c-4-4.47-4-4.47-4-7h-3z"/><path fill="#214be0" d="m191 421 1 3h2l1-2 .38 2.927c2.942 23.871 2.942 23.871 8.702 47.17C205 475 205 475 205 477l-1.875 1.313c-2.518 2-3.147 3.671-4.125 6.687-2.257-2.257-2.873-4.041-4-7l-1.05-1.606c-1.475-3.716-1.194-7.357-1.145-11.316l.008-2.606c.011-2.74.037-5.481.062-8.222q.016-2.79.027-5.582.035-6.834.098-13.668h-3c-.083-4.833.047-9.237 1-14"/><path fill="#1e4bcb" d="m72.383 368.805 2.742.07 2.758.055L80 369v2l1.875.25C84 372 84 372 85.141 373.758c.977 2.55 1.014 4.164.734 6.867l-.195 2.352C85 385 85 385 83.008 386.086L81 387l-1 3c-7.768.67-7.768.67-11.437-2.375-3.511-3.596-3.511-3.596-3.66-6.57L65 375h2l.375-1.875c.901-3.065 1.79-4.057 5.008-4.32"/><path fill="#1543cb" d="M87 416c4.604 1.316 8.183 3.092 12 6v2h2c2.55 3.856 2.367 7.916 2.375 12.375l.074 2.25c.029 5.36-.947 8.274-4.449 12.375h-2v2c-6.592 3.767-13.544 3.873-21 3-6.222-2.472-9.758-6.22-13-12-1.726-6.032-1.146-11.192 1-17l2 4h-2v8h2l1 7 2.313.813C72 448 72 448 73.343 449.55c2.89 2.528 6.127 1.848 9.798 1.726 5.817-.564 9.423-1.662 13.359-6.09 2.731-5.534 1.8-12.198 1.5-18.187h-2l-2-5h-5z"/><path fill="#2252cd" d="M485 830c4.6 2.2 4.6 2.2 6 5 .645 5.207.917 8.817-2.375 13.063-3.839 2.833-5.84 3.312-10.625 2.937-2.75-1-2.75-1-5-3-1.848-4.226-2.706-8.614-1-13 4.094-4.754 6.74-5.424 13-5"/><path fill="#e6e5e6" d="M304 427v2l2.375.75c2.625 1.25 2.625 1.25 4 3 .831 2.992.305 5.256-.375 8.25h-2l-1 5c-3.706 1.235-6.098 1.455-10 1-2.94-1.547-5.059-3.299-7-6-.9-3.118-.585-4.65 0-8 4.042-6.333 7.009-6.113 14-6"/><path fill="#eaeaeb" d="M444 427c4.6 2.2 4.6 2.2 6 5 .64 4.577.756 8.688-2 12.563-3.343 2.716-4.879 3.28-9.066 2.972-3.263-.903-4.898-2.944-6.934-5.535-1.756-3.512-.95-7.286 0-11 3.53-4.257 6.629-4.671 12-4"/><path fill="#224ff0" d="m72 551 3 1 1 11 2-1c1.06 7.376.91 14.385.5 21.813q-.18 3.321-.344 6.644l-.162 2.937c.006 2.433.357 4.282 1.006 6.606.044 2.083.04 4.167 0 6.25-.048 3.892.025 7.54.688 11.375C80 621 80 621 78.562 623L77 624l-.937-3.312A170 170 0 0 0 74 614c-.03-2.418.065-4.818.16-7.234-.055-2.897-.055-2.897-1.187-6.047-1.15-4.398-.99-7.987-.598-12.469l.336-4.484L73 580c0-3-.102-5.982-.219-8.98l-.136-3.526-.145-3.682z"/><path fill="#3d88f4" d="m201 571 .076 1.788q.176 4.013.362 8.024l.119 2.815.127 2.705.11 2.491c.14 2.356.14 2.356 1.206 5.177 1.371 16.631-1.845 31.247-7 47l-3-1q-2.528 1.454-5 3h-3v-3l2.25-2.187c3.23-3.304 4.894-6.634 6.75-10.813h2c.815-4.655 1.434-9.31 2-14h2l-.254-1.723c-.665-5.043-.703-9.28.254-14.277h-2v-25c2-1 2-1 3-1"/><path fill="#2342c7" d="M481 441h1c1.356 13.308 1.971 24.36-6.828 35.266-4.234 4.5-8.467 7.428-14.172 9.734l-2 .902c-8.407 3.564-15.69 2.317-24-.902-2.445-1.216-4.686-2.54-7-4l1-4 1.438 1.375c6.743 4.276 15.823 4.58 23.562 3.625 8.707-2.62 15.443-6.308 20.688-13.875l1.761-2.492c3.36-5.703 3.913-11.048 4.176-17.508l.117-2.375c.094-1.916.177-3.833.258-5.75"/><path fill="#1030da" d="M447 636c.91 3.01 1.045 5.38.688 8.5l-.239 2.281C447 649 447 649 446.06 650.734c-1.64 3.511-2.065 7.21-2.684 11.016l-.406 2.402q-.492 2.923-.969 5.848h-2l-.184 2.598c-1.126 15.37-1.126 15.37-3.207 22.226-1.402 5.006-2.465 10.106-3.609 15.176l-4-3 .813-3.437c1.024-4.58 1.831-9.19 2.625-13.813.948-5.432 1.927-10.853 3.062-16.25l.656-3.156L437 668l3-1-.035-1.934c-.01-.826-.018-1.652-.027-2.504l-.036-2.496C440 658 440 658 441 657l-.062-3.687c-.055-3.816.678-6.731 2.062-10.313l.438-2.312L444 639l3-1z"/><path fill="#417df7" d="m593 695 2 1q-.212 2.22-.437 4.438l-.247 2.496C594 705 594 705 593 706a195 195 0 0 0-.812 5.188C591.33 716.2 590.03 718.993 587 723l-.5 2.063c-.759 2.94-2.529 4.646-4.5 6.937l-1.281 1.629c-5.5 6.829-11.873 12.84-20.719 14.371-2.937.125-2.937.125-5 0l1-4 10-2v-2c1.863-1.332 1.863-1.332 4.313-2.812 3.684-2.351 5.702-4.219 7.687-8.188h2l2-7h2l2-9h2c.09-1.265.09-1.265.184-2.555l.254-3.32c.08-1.09.162-2.181.246-3.305C589 701 589 701 590 699h2z"/><path fill="#79bbf9" d="m359 21 1 2c-1 2-1 2-2.812 2.71q-2.186.664-4.375 1.313L351 28a64 64 0 0 0-1 4l-3 2 4 2c-5.254 4.766-10.502 9.515-16 14 1.494-4.731 1.494-4.731 4-6.062l2-.938c1.167-1.917 1.167-1.917 2-4l2-3c-3.914 0-7.293 4.88-10.037 7.559-3.148 3-5.693 5.175-9.963 6.441-.483-5.486 1.693-7.764 5.059-11.844 3.556-3.95 6.627-6.975 11.941-8.156l1-3 5-1v-2c3.65-1.61 7.05-2.449 11-3"/><path fill="#4d8cf8" d="m632 619 2 1c-5.254 4.766-10.502 9.515-16 14 2.279-7.25 8.007-10.887 14-15m-21 13 2 3-3 4 6-5 2 1-1.61 1.723c-4.166 4.554-7.589 8.779-10.39 14.277l-1.45 2.617c-1.916 4.181-2.97 8.363-4.05 12.82-1.405 5.772-2.855 11.223-5.5 16.563l-2 1c-.265-8.338.832-15.277 4-23 .729-2.655 1.364-5.32 2-8h2l.438-2.812C602 647 602 647 603 644h2l.375-1.75c.64-2.301 1.418-4.191 2.625-6.25l2-1z"/><path fill="#0c37bf" d="M617 53c4.157.099 6.47 1.005 9.313 3.938 3.4 4.368 4.046 8.615 3.687 14.062-.917 4.963-2.89 9.022-7.07 12.09-5.438 2.565-11.725 2.632-17.367.722C600.11 81.039 600.11 81.039 598 78c-.75-3.75-.75-3.75-1-7h3a99 99 0 0 1 3 5l2 1v2h2v2h12l1-3c1.438-1.687 1.438-1.687 3-3h2c.08-8.143.08-8.143-3.562-15.062L619 58v-3h-2z"/><path fill="#0928c6" d="M459 570c1.347 3.368.573 5.452-.439 8.809-1.143 4.466-1.604 9.062-2.186 13.629l-.406 3.083q-.491 3.74-.969 7.479h-2l-.148 2.027a630 630 0 0 1-1.79 19.098l-.226 2.261c-.605 5.383-.605 5.383-2.836 7.614v-3h-2c-.224-6.757.097-12.509 2-19l.5-2.937.5-2.063 2-1c1.012-3.405.964-5.625 0-9l1-1a84 84 0 0 0 .5-4.621l.25-2.834.25-2.982q.245-2.905.5-5.81l.219-2.614C454 575 454 575 455 573l-6 1v-2c3.508-1.604 6.144-2.22 10-2"/><path fill="#0e32aa" d="M612 123h3l2 5h2c1.96 5.882 1.616 10.432-1.062 15.938-2.13 3.562-2.535 3.95-6.75 5.125L608 149v2c-7.319.514-11.146-.788-16.875-5.562-2.392-3.057-2.288-6.224-2.312-9.938l-.043-2.906C589 130 589 130 591 127c1.025 3.076.96 4.758.75 7.938-.094 4.256-.094 4.256 2.563 7.625 3.577 1.913 6.246 2.575 10.25 2.562l2.378.008c2.123-.003 2.123-.003 4.059-1.133l1-3 2-1c.22-6.098.012-11.216-2-17"/><path fill="#0012ab" d="M549 444h3c2.558 3.837 2.253 6.945 2.195 11.387l-.008 2.476c-.011 2.608-.037 5.216-.062 7.825q-.016 2.652-.027 5.306-.035 6.503-.098 13.006h-2l.035 2.422A207 207 0 0 1 551 509l-3-1c-1.149-3.446-.804-5.099-.125-8.625l.555-2.977C549 494 549 494 550 493c.26-1.66.459-3.329.625-5 .095-.908.19-1.815.29-2.75.027-.743.056-1.485.085-2.25l-1-1a81 81 0 0 1-.316-4.691l-.127-2.862-.12-3.01-.13-3.021q-.16-3.708-.307-7.416l-2 1c.58-6.013 1.223-12.009 2-18"/><path fill="#1a46c8" d="M212.563 723.125 215 724l2.25.438L219 725c1.3 2.602 1.168 4.597 1.188 7.5l.042 2.969C220 738 220 738 218 740c-6.8 1.316-6.8 1.316-10.375.375-2.29-1.938-2.898-3.469-3.625-6.375.084-4.044.772-5.702 3.25-8.937C210 723 210 723 212.563 723.125"/><path fill="#1238bc" d="M640 542c4.92 1.598 9.006 3.027 11.563 7.75 1.736 4.18 1.757 7.773 1.437 12.25h-2l-.187 2.188c-1.075 3.719-2.87 5.36-5.813 7.812h-3v2c-8.488 1.439-8.488 1.439-13-1l-2.625-1.312c-2.745-1.951-3.937-3.66-5.375-6.688v-3c3.823.546 5.41 2.238 8 5l2 1v2c7.858-.277 7.858-.277 15-3 2.1-4.3 2.439-8.263 2-13a83 83 0 0 0-3-4c-.187-2.75-.187-2.75 0-5l-5-1z"/><path fill="#5b9bf9" d="m45.438 479.813 2.814-.038c4.94-.01 9.176.106 13.748 2.225l1 2c-.573-.01-1.147-.02-1.737-.032-15.789-.586-15.789-.586-31.263 2.032-2.053 1.808-2.053 1.808-2.812 3.875-1.598 2.86-3.477 4.318-6.188 6.125h-4v-2l-3-1c1.375-2.5 1.375-2.5 3-5h2l1-3c3.604-1.522 6.052-2 10-2v-2c5.189-1.157 10.143-1.184 15.438-1.187"/><path fill="#1a3fe3" d="M550 510h1c.195 4.877-.436 8.414-2 13l1 3-1 1a294 294 0 0 0-.812 8c-1.162 12.087-3.174 24.031-5.188 36-5.248-10.496-2.993-23.107.063-34.25 1.04-4.163 1.4-8.159 1.69-12.43C545 522 545 522 546 520q.543-3.495 1-7h3z"/><path fill="#408cf9" d="M190 435h3v62l-1-4h-2c-.996-7.615-1.358-15.228-1.613-22.9q-.074-2.145-.166-4.288c-.449-10.487.177-20.438 1.779-30.812"/><path fill="#1746c3" d="M644 486c2.575 1.776 3.963 4.062 5 7-.25 2.5-.25 2.5-1 5l-.625 2.25C646 502 646 502 642.688 502.938c-4.084.069-5.578-.361-8.688-2.938-2.118-2.695-1.997-4.072-1.875-7.562.875-3.438.875-3.438 2.5-5.375 3.307-1.48 5.795-1.454 9.375-1.063"/><path fill="#2351ef" d="M122 542h2l.402 2.371.535 3.067.528 3.058c.283 2.433.283 2.433 1.535 3.504.087 1.635.107 3.273.098 4.91l-.01 2.998-.025 3.154-.014 3.167q-.018 3.885-.049 7.771h-2l1 2c.224 2.176.393 4.357.535 6.54l.264 3.944.263 4.141.276 4.164q.336 5.105.662 10.211l-3-1v-7h-2l-.031-1.679q-.165-8.712-.341-17.425-.065-3.244-.125-6.488-.089-4.685-.187-9.369l-.05-2.893c-.119-5.465-.481-10.822-1.156-16.249L121 543z"/><path fill="#0822d0" d="M489 551h2c2.612 4.763 1.986 8.865 1 14-.875 3-.875 3-2 5l-3 1 .484 1.676c1.534 6.911.822 13.435-1.683 19.976-1.475 4.324-2.086 8.847-2.801 13.348l-4 1c.446-3.606.909-7.21 1.375-10.812l.383-3.104.39-2.979.35-2.745C482 585 482 585 484 582c.389-2.827.389-2.827.5-6 .545-8.592 1.943-16.78 4.5-25"/><path fill="#1637e8" d="M310 748c1.377 4.132-.243 6.691-1.875 10.5l-1.68 4.031L305 766l-1 3h-2l-2 8h-2l-.25 2c-1.626 6.503-5.433 12.312-8.7 18.117A97 97 0 0 0 287 801h-2l-.812 3.438L283 808l-3 1c1.032-2.58 2.065-5.146 3.188-7.687L284 799l-1-2c3-3 3-3 4.563-4.312 1.984-2.33 2.547-4.78 3.437-7.688a286 286 0 0 1 2-4 559 559 0 0 0 1.938-4.437c1.482-3.34 2.939-6.571 5.062-9.563h2l-.687-2.125c-.42-3.857.753-5.54 2.687-8.875l1.023-1.902c2.697-4.958 2.697-4.958 4.977-6.098"/><path fill="#1b3de9" d="M637 721h1a979 979 0 0 1-.437 4.25l-.247 2.39c-.292 2.184-.737 4.237-1.316 6.36h-2l-.437 2.75c-.427 2.465-.914 4.838-1.563 7.25h-2l-.375 2.25c-.58 2.551-1.362 4.477-2.625 6.75h-2l-.312 2.313c-.764 2.986-1.485 3.654-3.688 5.687a791 791 0 0 0-3 5c-2.062 2.813-2.062 2.813-4 5h-2l-2 4h-2v2l-4 1c.283-3.396.62-4.672 3.25-6.937L610 769a92 92 0 0 0 2.688-3.25L615 763h2l.32-2.207c.736-3.024 1.808-4.92 3.555-7.48l1.555-2.325C624 749 624 749 627 747l.438-3.437L628 740l1.938-1.375c3.35-2.64 3.5-6.542 4.062-10.625v-3l2-1z"/><path fill="#1849cd" d="M607 587c1.938 1.125 1.938 1.125 3 3 .188 3.688.188 3.688 0 7h-2l-2 4c-6.222.479-6.222.479-9.437-1.5-2.38-3.808-2.2-6.045-1.563-10.5 3.734-3.734 7.103-3.27 12-2"/><path fill="#1642c2" d="M676 287c1.504 4.165.726 7.002-1 11-2.82 1.41-4.87 1.245-8 1-2.875-1-2.875-1-5-3-.553-2.737-.525-5.26 0-8 2-3 2-3 3.813-3.75 4.17-.477 6.718.437 10.187 2.75"/><path fill="#0f34db" d="M481 604c2 2 2 2 2.082 3.785-.835 7.054-2.048 14.023-3.324 21.008a441 441 0 0 0-1.82 10.894c-.644 3.93-1.489 7.586-2.938 11.313l-3-1c-.345-7.58.825-15.093 3.008-22.352 1.281-4.712 1.736-9.366 2.203-14.214.198-1.82.486-3.629.789-5.434l2-1z"/><path fill="#1537df" d="M396 821c1.133 3.347.867 5.246-.293 8.555l-.912 2.613-.983 2.707-.923 2.684C390.09 845.429 386.886 851.08 380 856c-2.875.813-2.875.813-5 1v2c-6.353 1.694-13.647 1.694-20 0v-2l-1.812-.437c-1.75-.45-3.475-.992-5.188-1.563v-3c5.75 1.75 5.75 1.75 8 4 2.36.458 4.74.821 7.125 1.125l3.883.508L370 858l1-3c1.848-.73 1.848-.73 4.063-1.187l2.222-.481L379 853v-2c1.875-2.125 1.875-2.125 4-4h2v-2l1.938-1.625c2.231-2.57 2.38-3.32 2.687-6.562L390 833l2-1c.685-1.888.685-1.888 1.125-4.062l.508-2.223L394 824h2z"/><path fill="#2d6ae7" d="m645.813 168.75 2.1.055c1.696.046 3.392.118 5.087.195v2l-10 1 1 4-2.812 1.75c-3.15 1.947-3.15 1.947-4.563 4.25-2.53 3.113-6.014 4.387-9.625 6q.212-2.188.438-4.375c.08-.812.162-1.624.246-2.46C628 179 628 179 629 177h2l.688-1.75c3.441-5.9 7.675-6.82 14.125-6.5"/><path fill="#1847cd" d="M650 241.5c3 .5 3 .5 5.375 2.125 2.1 3.07 2.158 4.72 1.625 8.375-1 2.375-1 2.375-3 4-2.755.337-5.206.183-8 0l-2-5h-2c.34-3.06.857-4.804 2.688-7.312C647 242 647 242 650 241.5"/><path fill="#1c3fee" d="m232 672-1.375 1.25c-1.728 1.67-1.728 1.67-2.562 3.875L227 679q-1.99.544-4 1l-1 3c-1.96 1.605-1.96 1.605-4.375 3.188l-2.398 1.605C213 689 213 689 210 689l-1 3-6 1v2c-4.537 1.452-8.18 2.235-13 2v-3l2.813-.75c3.393-.975 6.729-2.085 10.062-3.25l2.867-1c2.415-.783 2.415-.783 3.258-3 2.448-1.564 4.955-2.975 7.5-4.375 3.538-2.3 6.316-5.194 9-8.437 2.145-1.698 3.85-1.403 6.5-1.188"/><path fill="#2860ea" d="M544 374c1.938.5 1.938.5 4 2 .97 3.42 1.618 6.764 0 10h2c2.152 13.217 2.129 26.465 2.063 39.813q-.009 2.656-.014 5.314-.017 6.436-.049 12.873h-3l.523-3.64c.708-6.385.38-12.706.102-19.11l-.133-3.652c-.2-4.99-.461-9.708-1.492-14.598q-.027-2.5.063-5c.051-3.902-.51-6.407-2.063-10v-7c-.933-2.2-.933-2.2-2-4z"/><path fill="#4483f6" d="m156 244 2 4c-3.757 4.87-7.848 9.061-12.562 13-2.881 2.417-5.098 5.053-7.438 8h-2l-2 5h-2l-1 6h-3c.331-12.928 19.246-27.478 28-36"/><path fill="#1645e4" d="M278 563c4.565.543 7.973 1.795 12 4v2l-1.937-.562L286 568c-2.082 2.082-1.258 6.534-1.316 9.41l-.063 2.552q-.097 4.05-.183 8.1l-.131 5.479A6566 6566 0 0 0 284 607h-1v-19l-4-1 .016-1.88q.029-4.216.046-8.433l.026-2.958.01-2.842.016-2.619c-.02-2.435-.02-2.435-1.114-5.268"/><path fill="#1541ba" d="M128 472c1.853 3.127 2.454 5.372 2 9-1 2.313-1 2.313-3 4-2.755.342-5.206.183-8 0l-1-4h-2v-5h2v-3c3.215-1.607 6.436-1.057 10-1"/><path fill="#163edf" d="M526 644h2v6h-2l.07 1.695c.17 7.575-.865 14.839-2.07 22.305h-2l.07 2.578c.163 10.917-.837 21.581-2.07 32.422h-2v-13h2l-1-14h2l-.062-3.437c0-10.525.734-21.126 2.062-31.563l3-1z"/><path fill="#1e42e3" d="m422 48 1 2h2l2 8h2l.55 1.723c1.348 4.137 2.795 8.134 4.555 12.117 1.286 3.103 2.438 6.253 3.582 9.41l1.325 3.64C440 88 440 88 440 91h2c1.316 3.62 2 6.096 2 10h2v7l-2-2v-4h-2l-.75-3.062c-.774-2.75-1.768-5-3.25-7.438-2.035-3.379-3.009-6.668-4-10.5a467 467 0 0 0-2.414-6.887C431 72 431 72 431 68h-2l-2-9h-3z"/><path fill="#203be5" d="M711 617h2c2.734 4.003 2.295 8.287 2.25 12.938l.023 2.42c-.017 5.233-.241 9.385-3.894 13.443l-1.817 1.511-1.808 1.551C706 650 706 650 703 650v2c-2.709 1.354-5.01 1.065-8 1v-2l2.063-.625c7.18-3.36 10.924-8.183 13.937-15.375l1-2c.33-5.405.117-10.693-1-16"/><path fill="#4f8cf9" d="M295 112c-1.56 3.74-3.87 6.115-6.727 8.957l-1.413 1.412q-1.482 1.478-2.97 2.948a1021 1021 0 0 0-4.464 4.443A708 708 0 0 1 271 138l-2.32 2.26-2.078 1.94-1.764 1.662c-2.38 1.474-4.09 1.35-6.838 1.138 2.586-3.37 4.896-6.076 8.438-8.437 3.285-2.215 5.539-4.743 8.027-7.801 2.082-2.39 4.435-4.338 6.87-6.356 3.163-2.672 5.992-5.673 8.79-8.719C292 112 292 112 295 112"/><path fill="#173ed9" d="M73 581h2v21h2v-3l2 1-.035 2.563c-.092 7.562-.092 7.562.722 15.062C80 621 80 621 78.564 623L77 624l-.937-3.312A170 170 0 0 0 74 614c-.03-2.418.065-4.818.16-7.234-.056-2.9-.056-2.9-1.187-6.067-1.132-4.302-.999-7.756-.598-12.136l.172-2.217c.14-1.783.295-3.565.453-5.346"/><path fill="#2049e7" d="m428 478 1.938 1.375c9.794 5.197 21.415 4.263 32.062 2.625-.562 2.375-.562 2.375-2 5-8.6 3.612-16.593 2.257-25-1-2.445-1.216-4.686-2.54-7-4z"/><path fill="#224ae4" d="M568 792h3v2l2 1c-.957.2-.957.2-1.934.402-.826.177-1.652.354-2.504.535l-2.496.528c-2.043.343-2.043.343-3.066 1.535-1.842.1-3.687.13-5.531.133l-3.395.004-3.574-.012-3.574.012-3.395-.004-3.138-.004C538 798 538 798 537 797a236 236 0 0 0-7-1v-1c4.25-1.04 8.36-1.13 12.707-1.098l2.198.005c2.303.005 4.605.018 6.908.03l4.7.014q5.744.017 11.487.049z"/><path fill="#1445ce" d="m458.688 797.813 2.449.082L463 798c2.121 3.746 2.029 5.79 1 10-1.876 1.876-4.498 1.18-6.992 1.23C455 809 455 809 452 807c-.875-2.937-.875-2.937-1-6 2.224-3.115 3.976-3.349 7.688-3.187"/><path fill="#052bc3" d="M332 598h1v8h2c.103 11.39.053 22.648-1 34h-2l.563 2.813c.754 5.095.035 10.103-.563 15.187h-1v-9h-2v-10l2-1v-5h-1v-7h2l-.062-2.187c.062-2.813.062-2.813.625-5.5.682-2.328.682-2.328-.563-4.313h2l-1-2.375c-1.274-4.619-1.17-8.867-1-13.625"/><path fill="#68aff8" d="M201 375h2c.935 2.526 1.161 3.624.082 6.145-1.593 4.203-1.816 8.529-2.205 12.972-.462 4.407-1.491 7.194-3.877 10.883q-.061 3.5 0 7c-1 2.438-1 2.438-2 4-1.206-4.672-1.094-9.215-1-14h2l-.07-2.02c-.135-6.898.61-13.243 2.07-19.98h3z"/><path fill="#1c46ed" d="M541 572h1c.082 4.161-.018 7.947-1 12h-2l-.184 3.07-.254 4.055-.119 2.016c-.255 4.01-.71 7.909-1.443 11.859h-2l1 3-2 3c-4.637-7.913-.05-19.707 2-28l1-2h2l.438-3.937c.437-3.938.437-3.938 1.562-5.063"/><path fill="#5a9afa" d="M198 618h2c-.406 8.026-1.598 15.327-4 23l-3-1q-2.528 1.454-5 3h-3v-3l2.25-2.187c3.23-3.304 4.894-6.634 6.75-10.813h2l.438-2.812C197 621 197 621 198 618"/><path fill="#1f44ec" d="M152 696c5.75-.125 5.75-.125 8 1 2.698.1 5.365.14 8.063.125l2.33-.004c4.012-.027 7.935-.169 11.92-.683 3.236-.385 4.704-.327 7.687.562v2c-11.534 2.212-31.05 5.475-42 0v-2l4 1z"/><path fill="#1838df" d="M9 508c1.89.227 1.89.227 4 1 1.047 1.96 1.047 1.96 1.75 4.375l.734 2.398C16 518 16 518 16 521l2.188.875q2.668 1.065 5.312 2.188c2.498 1.021 2.498 1.021 5.25 1.437l2.25.5 1 2 18 1 1 3-21-1v-2l-3.312-.437C23 528 23 528 20 527l-1-2-3-1c-.687-2.062-.687-2.062-1-4h-2c-1.604-3.508-2.22-6.144-2-10H9z"/><path fill="#133ec0" d="M478 830c4.992-.294 7.974-.078 12 3 1.857 3.715 1.585 7.956 1 12-2.19 2.824-3.83 4.415-7 6-4.579.407-7.402-.037-11-3v-4h2v2h3v2h5l1-2h4q-.464-2.438-.937-4.875l-.528-2.742C486.1 836 486.1 836 485 834c-2.527-.656-2.527-.656-5-1v-2z"/><path fill="#4b87f5" d="M577 730h4c-.465 4.527-1.859 6.242-5.312 9.125l-2.364 2.008c-5.75 4.62-10.651 7.332-18.324 6.867l1-4 10-2v-2c2.206-1.588 4.512-2.958 6.836-4.367 2.288-1.727 3.126-2.998 4.164-5.633"/><path fill="#5eadf2" d="M308 83h3c.463 4.63-.525 7.47-2.719 11.52-1.63 3.155-3.02 6.4-4.406 9.668l-1.508 3.542A459 459 0 0 0 299 116c-2.325-7.558-.073-13.06 3-20h2l.438-3.875c.268-2.382.484-3.97 1.562-6.125h2z"/><path fill="#1e59e6" d="m631.625 543.938 2.477.027L636 544v2l-2 1-1 3-3 1c-1.209 2-1.209 2-2 4h-4v5l-2 1c-1.604-9.958-1.604-9.958.813-14.125 3.143-2.695 4.759-2.995 8.812-2.937"/><path fill="#0a28c1" d="M549 444h3c.822 4.913 1.065 9.49.879 14.465l-.072 2.055c-.075 2.14-.16 4.278-.245 6.418l-.158 4.384A3202 3202 0 0 1 552 482h-2l-1-21-2 1c.58-6.013 1.223-12.009 2-18"/><path fill="#0b2ed5" d="M403.125 584.875 406 585c-1 2-1 2-3 3-.662 2.81-.662 2.81-1.07 6.223l-.528 3.818-.527 4.021-.55 4.034q-.674 4.95-1.325 9.904h-1v-9h-2l-1 2 1-13h2l-.07-1.898-.055-2.477-.07-2.46c.338-3.755 1.733-4.147 5.32-4.29"/><path fill="#3055cb" d="M332 453h1c.738 13.633.738 13.633-4 20h-2l-.687 1.75c-1.673 2.867-3.585 4.387-6.313 6.25h-3v2l-5-1 2.063-1.625L317 478l1.68-1.25c7.887-6.17 11.746-13.988 13.32-23.75"/><path fill="#0d37ba" d="M187 757h3v2l3 1c1.74 3.481 1.453 7.194 1 11-1.015 2.846-2.144 4.525-4 7-2.965 1.096-5.859 1.164-9 1.188l-2.562.042c-2.592-.245-4.208-.924-6.438-2.23v-2h7v2l10-2c.983-2.948 1.134-4.927 1.125-8l.008-2.625c-.037-2.525-.037-2.525-1.133-5.375h-2z"/><path fill="#1136de" d="M646 672c1.11 3.33.865 4.532.156 7.895-1.433 7.305-2.205 14.656-3.011 22.052-.666 5.844-1.556 11.388-3.145 17.053h-2q.21-2.72.438-5.437c.08-1.01.162-2.02.246-3.06C639 708 639 708 640 707c.073-2.186.084-4.375.063-6.562l-.028-3.63L640 694h2l-.062-3.812c-.01-5.433.497-10.789 1.062-16.188h2z"/><path fill="#3673f6" d="M281 612h1q.291 4.125.563 8.25l.17 2.355.146 2.286.143 2.094c-.024 2.164-.472 3.928-1.022 6.015a85 85 0 0 0-.316 4.11l-.127 2.285-.12 2.355-.13 2.402A2020 2020 0 0 0 281 650h-1v-6h-2c-.152-9.056.31-17.976 1-27h2z"/><path fill="#1e57e9" d="m191 421 1 3h2l1-2q.507 3.78 1 7.563c.095.704.19 1.408.29 2.134.577 4.477.805 8.79.71 13.303l-2-2-1 6h-1v-14h-3c-.083-4.833.047-9.237 1-14"/><path fill="#6bb4f6" d="m340 30 2 1c-.297 3.391-.767 4.761-3.18 7.238l-2.695 2.075-2.68 2.113C331 44 331 44 328 44l-.375 2.438L327 49l-2 1c-.483-5.484 1.695-7.76 5.05-11.844 2.947-3.259 5.984-6.173 9.95-8.156"/><path fill="#1135db" d="M451 606c2.044 4.089.564 9.553.188 14l-.252 3.39-.268 3.235-.241 2.977C450 632 450 632 448 634v-3h-2c-.224-6.757.097-12.509 2-19l.5-2.937.5-2.063z"/><path fill="#68acf4" d="M325 51v4l-2 1c-2.737 4.562-4.26 9.952-6.062 14.938C316 73 316 73 314 74c-.685 1.888-.685 1.888-1.125 4.063l-.508 2.222L312 82h-2v-6h2l.688-3.75C317.436 51 317.436 51 325 51"/><path fill="#1b3cec" d="M241 648h2c-1.252 10.183-3.419 15.84-11 23v-2l-2-1 1.25-1.5c2.324-3.32 3.988-6.859 5.75-10.5q1.122-2.251 2.25-4.5z"/><path fill="#1844e1" d="m395 614 4 3-2 4-1-2 .563 3.938c.524 4.733.569 9.408-.563 14.062-2 2-2 2-5 4-.576-9.264 1.07-18.208 4-27"/><path fill="#0a3dc5" d="m64 427 2 4h-2v8h2l1 7 2.188.688c3.344 1.56 5.328 3.615 7.812 6.312l-1 3c-6.139-2.246-9.82-6.33-13-12-1.726-6.032-1.146-11.192 1-17"/><path fill="#3070f4" d="M190 435h3v38h-1l-1-18h-3z"/><path fill="#1f4ceb" d="M217 321h2c-.57 5.41-1.925 9.962-3.937 15-1.952 4.956-3.676 9.854-5.063 15h-2v-7l-2-1c1.039-2.424 1.913-3.923 3.906-5.687 2.615-2.888 3.669-5.926 4.844-9.563l.668-1.969c.538-1.59 1.061-3.185 1.582-4.781"/><path fill="#2354eb" d="M235 275h1c-.563 5.192-1.817 9.702-3.75 14.563q-.816 2.102-1.629 4.207l-.825 2.127c-1.652 4.364-3.125 8.793-4.62 13.212-1.104 2.714-2.299 4.662-4.176 6.891.423-4.82 1.053-8.61 3.117-13.04 3.25-7.218 5.555-14.896 7.953-22.429C233 278 233 278 235 275"/><path fill="#1c46f3" d="m530 619 1 4h2c-.551 5.24-1.499 9.933-3 15a176 176 0 0 0-1 6l-3-1c-1.612-5.02-.314-9.288.875-14.25l.566-2.508c1.408-6.091 1.408-6.091 2.559-7.242"/><path fill="#447cf5" d="m667 604 1 3-2.062.375c-4.966 1.056-9.762 2.553-14.563 4.188-3.105 1.05-6.13 1.914-9.375 2.437l3-3-3-2 9-1v-2c5.38-1.19 10.453-2.292 16-2"/><path fill="#1d47e3" d="M123 576h2c1.411 2.822 1.33 5.391 1.535 8.54l.264 3.944.263 4.141.276 4.164q.336 5.105.662 10.211l-3-1v-7h-2z"/><path fill="#2457d6" d="M604 586v4h2c-.75 2.938-.75 2.938-2 6-2.125.875-2.125.875-4 1v-2h-5c-.312-2.812-.312-2.812 0-6 3.244-2.704 4.709-3 9-3"/><path fill="#0529ce" d="M250 561h2q.435 6.851.854 13.702.144 2.32.292 4.64c.652 10.237.99 20.398.854 30.658h-1v-10h-2l.035-3.613.028-4.7.025-2.38.01-2.295.016-2.11c-.045-2.127-.045-2.127-1.114-4.902-.34-3.032-.464-6.079-.625-9.125l-.156-2.535A191 191 0 0 1 249 562z"/><path fill="#2c61e8" d="M405 584v1l-2.937.938c-2.904.757-2.904.757-4.063 2.062-7.787.963-15.248 1.203-23 0v-3c1.825.03 1.825.03 3.688.063 8.748 0 18.016-2.686 26.312-1.063"/><path fill="#1233e2" d="m84 644 1 3h2l1.375 2.938C89.658 653.07 89.658 653.07 92 654c.625 3.063.625 3.063 1 6h3l2 7h3l1 5 3 1v2l-4-2v-2l-1.828-.75c-2.53-1.456-3.44-2.761-4.922-5.25l-1.297-2.125C92 661 92 661 92 659h-2l-.875-2.437c-.858-2.696-.858-2.696-3.125-3.563-1.627-3.345-2-5.188-2-9"/><path fill="#2568f3" d="M613 335h4c-.628 2.929-1.586 5.361-3 8h-2l-.312 1.938L611 347l-3 1-.75 1.938C606 352 606 352 602.375 353.25L599 354c0-2 0-2 2.188-4.312q2.668-2.552 5.375-5.063c2.817-3.034 4.505-5.975 6.437-9.625"/><path fill="#2a60f5" d="M259 211c1.142 3.359.86 5.243-.328 8.555l-.926 2.613-.996 2.707-.95 2.684c-4.614 12.848-4.614 12.848-7.8 14.441.75-7.625.75-7.625 3-11a92 92 0 0 0 1.313-4.562c1.574-5.511 3.978-10.405 6.687-15.438"/><path fill="#1c47f0" d="M467 691h2c.798 5.64 1.182 11.12 1.188 16.813l.037 2.271c.01 3.844-.043 5.643-2.225 8.916h2l-1 3h-2z"/><path fill="#0933b9" d="M665 174c4.065 3.29 5.743 7.635 6.293 12.691.158 5.537-.193 9.53-3.293 14.309-1.167-3.501-1.133-6.312-1.125-10l-.008-3.75C667 184 667 184 668 181h-2z"/><path fill="#1434e4" d="M637 721h1a979 979 0 0 1-.437 4.25l-.247 2.39c-.292 2.184-.737 4.237-1.316 6.36h-2l-.437 2.75c-.427 2.465-.914 4.838-1.563 7.25h-2l-.375 2.25c-.58 2.551-1.362 4.477-2.625 6.75h-2l.938-2.562c1.184-3.432 1.184-3.432 1.437-7.125.625-3.313.625-3.313 2.563-4.688 3.35-2.64 3.5-6.542 4.062-10.625v-3l2-1z"/><path fill="#0c2cd0" d="M550 510h1c.195 4.877-.436 8.414-2 13l1 3-1 1a145 145 0 0 0-.562 6.063l-.254 3.347L548 539h-1v-10h-2c-.125-6.75-.125-6.75 1-9q.543-3.495 1-7h3z"/><path fill="#1440c6" d="M617 53c3.51.24 5.553.659 8.375 2.813 2.996 5.876 2.206 12.43.875 18.75-1.38 2.692-2.674 3.891-5.25 5.437l-2-1a91 91 0 0 1 4-4h2c.08-8.143.08-8.143-3.562-15.062L619 58v-3h-2z"/><path fill="#509cf2" d="M645 610v3h-3l-1 3c-4.333 3-4.333 3-7 3v-2l-2.75 1.438c-2.514 1.208-4.546 2.042-7.25 2.562v-2c2.188-1.437 2.188-1.437 5-3l2.625-1.687C634 613 634 613 637 613v-2c2.928-.976 4.956-1.082 8-1"/><path fill="#4570dd" d="M667.5 517.875C671 518 671 518 672 519c-.176 2.69-.618 5.329-1 8h-5v-2l-4-1c1.071-5.967 1.071-5.967 5.5-6.125"/><path fill="#1244c2" d="M590 127c2.25 3.374 2.12 4.083 1.813 7.938-.07 4.065-.07 4.065 1.937 7.562 4.89 2.257 9.934 2.856 15.25 3.5v1a365 365 0 0 1-7.25.75l-2.066.246c-3.489.305-5.249.327-8.106-1.793-2.553-3.565-2.714-6.437-2.703-10.703l-.008-2.906C589 130 589 130 590 127"/><path fill="#1637e9" d="m407 783 4 1c-2.062 7.452-4.126 14.814-7 22l-1.187 3-.813 2h-1c.522-8.102.522-8.102 2.563-11.937 1.786-3.806 1.595-6.656 1.347-10.793C405 786 405 786 407 783"/><path fill="#163fbe" d="M612 123h3l2 5h2c1.125 6.625 1.125 6.625 0 10-1.876 1.845-3.927 3.368-6 5l-1-2 2-1c.22-6.098.012-11.216-2-17"/><path fill="#1e64e1" d="m73 418 1 4h-3l.188 2.25C71 427 71 427 69.625 428.813c-2.362 3.18-2.79 6.33-3.625 10.187h-2c-.098-6.152-.098-6.152 0-8l1-1c.04-1.666.043-3.334 0-5h2l.188-1.812c1.136-3.06 2.985-3.738 5.812-5.188"/><path fill="#0828d7" d="M419 750h2c-.516 6.499-1.805 11.894-4 18a1336 1336 0 0 0-2.687 8.063l-1.325 3.972L412 783h-2c-.625-3.375-.625-3.375-1-7l2-2 2 1 .332-2.09c.931-5.518 2.13-10.689 4.004-15.96.778-2.286 1.28-4.568 1.664-6.95"/><path fill="#1e3fe9" d="M711 617h2c1.64 2.886 2.25 4.945 2.23 8.258l-.005 2.394-.038 2.473-.001 2.496c-.045 6.098-.045 6.098-1.186 8.379l-5-1c1.875-4.75 1.875-4.75 3-7 .33-5.405.117-10.693-1-16"/><path fill="#082fdb" d="M330 650h1c.1 9.391.13 18.657-1 28h-2a658 658 0 0 1-.687-8.937l-.221-2.518c-.406-6.136.563-10.87 2.908-16.545"/><path fill="#346cf0" d="m667 603 23 1-1 3h-21z"/><path fill="#1743d7" d="M203 366c1 2 1 2 .188 4.563C202 373 202 373 200 374c-2.063-.162-2.063-.162-4.57-.559l-2.715-.42-2.84-.459c-1.417-.22-1.417-.22-2.863-.447q-3.507-.55-7.012-1.115v-2l-3 1-1-2q2.718-.04 5.438-.062l3.058-.036C187 368 187 368 188 369c1.948.34 3.91.598 5.875.813l3.242.394c3.007.11 3.007.11 4.766-2.195z"/><path fill="#1738e4" d="M433 690h2c.369 13.633.369 13.633-2 20l-4-3a499 499 0 0 1 4-17"/><path fill="#3a7cf5" d="M599 664c1.78 5.343-.436 10.904-2.5 16-1.5 3-1.5 3-3.5 4-.202-6.36.372-11.852 2-18h3z"/><path fill="#4290fa" d="M192 500c4.304 4.304 4.028 8.564 4.098 14.402a666 666 0 0 1-.036 4.535l-.013 2.362q-.02 2.85-.049 5.701l-2-1 1-8-3-1z"/><path fill="#1237de" d="m540 794 1 2h23l-1 2c-4.146.029-8.292.047-12.437.063l-3.588.025-3.409.01-3.158.016C538 798 538 798 537 797a236 236 0 0 0-7-1v-1c3.406-.778 6.508-1.1 10-1"/><path fill="#0b23d6" d="m72 551 3 1v13h1v15c-2-1-2-1-3-3-.154-1.958-.25-3.92-.316-5.883l-.127-3.535-.12-3.707-.13-3.73q-.16-4.573-.307-9.145"/><path fill="#194cec" d="M108 510h2c5.209 7.042 11.548 17.022 11 26h2v3h-2c-2.984-3.892-4.033-8.226-5.254-12.89-.537-2.295-.537-2.295-2.746-3.11l-2-6a496 496 0 0 0-3-4z"/><path fill="#0e39c4" d="M102 428h1c.109 2.71.188 5.414.25 8.125l.102 2.305c.094 5.468-.749 8.393-4.352 12.57h-2v2l-3 1c1.033-3.444 2.249-6.502 4-9.625 2.686-5.152 3.277-10.67 4-16.375"/><path fill="#1e3ce7" d="M686 650v3h8v1h-27l2-1 1-3c5.687-.914 10.313-.914 16 0"/><path fill="#173cd7" d="m335 581.25 2.063.266C339 582 339 582 342 584c2.216.447 4.448.815 6.688 1.125l3.574.508L355 586v2c-9.174.55-18.572-1.35-27-5 3.17-2.113 3.506-2.253 7-1.75"/><path fill="#164de5" d="M622 310c2 2 2 2 2.23 4.75-.02 1.609-.02 1.609-.043 3.25l-.019 3.25C624 324 624 324 623 326h-2v4h-3l-1 2c.486-3.123.999-5.996 2-9l2-1-.562-1.562c-.596-3.32-.06-6.145.562-9.438z"/><path fill="#245ff3" d="M389 647h3q-.172 3.938-.375 7.875c-.03.746-.062 1.493-.094 2.262-.304 5.636-.304 5.636-2.531 7.863l-3-2a438 438 0 0 1 2-13h2z"/><path fill="#1438cc" d="M278 563c4.565.543 7.973 1.795 12 4v2l-4-1-2 7h-4l-.184-1.863-.253-2.45-.247-2.425c-.269-2.423-.269-2.423-1.316-5.262"/><path fill="#4f8efe" d="M41 480q3.563-.08 7.125-.125c.665-.017 1.33-.034 2.016-.05 4.343-.043 7.866.44 11.859 2.175l1 2c-3.292.029-6.583.047-9.875.063l-2.84.025-2.715.01-2.507.016C43 484 43 484 41 483z"/><path fill="#092bb4" d="m629 201 7 1v3h4v2h3v2h12c-3.757 2.505-6.654 2.611-11 2-5.912-1.848-10.53-4.759-15-9z"/><path fill="#346fe0" d="m596.262 123.926 2.426.386 2.449.364L603 125v3l-6 1v4h-4l-2-6c1.725-2.172 2.423-2.981 5.262-3.074"/><path fill="#397af4" d="m127 278 1 2h2c-1.014 6.284-2.619 13.202-7 18v-3l-2-1h2l-.125-3.125c.12-3.743.774-6.412 2.125-9.875h2z"/><path fill="#3166f4" d="M389 663c.266 6.95-.388 13.235-2 20l-2-3h-2l1-10h2v-6c2-1 2-1 3-1"/><path fill="#3366de" d="m178.625 755.938 2.477.027L183 756v2l-2 1v2c-5.625 3-5.625 3-9 3v-7c2.405-1.203 3.95-1.1 6.625-1.062"/><path fill="#1d43eb" d="M77 625h5l2 19h-2a528 528 0 0 1-1.562-4.875l-.88-2.742C79 634 79 634 80 632h-2z"/><path fill="#02239c" d="M647 546h2c3.326 5.583 4.465 9.497 4 16h-2l-.375 2.313C650 567 650 567 648 570h-2c1.875-5.875 1.875-5.875 3-7 .234-2.016.413-4.038.563-6.062l.253-3.348L650 551h-2z"/><path fill="#0c33b5" d="M490 840h1c-.125 3.25-.125 3.25-1 7-3.014 2.733-5.034 3.862-9.062 4.438-3.372-.503-5.306-1.27-7.938-3.438v-4h2v2h3v2h5l1-2h4v-2h2z"/><path fill="#4282f6" d="M227 797h2v2h-2zm-3 2 5 1-1 10-4 1c-.762-4.316-1.16-7.744 0-12"/><path fill="#0a2bdb" d="M253 611h1c-.322 3.668-.66 7.334-1 11l-.219 2.559c-.396 4.192-1.056 7.559-2.781 11.441a104 104 0 0 0-1 5l-2-1c-.156-2.727-.156-4.641.945-7.168 1.584-4.253 1.83-8.64 2.266-13.125.392-3.62.731-5.62 2.789-8.707"/><path fill="#295dda" d="m462 798-1 7h-7l-2-6c3.215-1.607 6.436-1.057 10-1"/><path fill="#0b32ab" d="M217 725h2c1.3 2.602 1.168 4.597 1.188 7.5l.042 2.969C220 738 220 738 218 740c-7.035 1.362-7.035 1.362-10.5.063L206 739v-3l3 1c3.684.132 6.49.17 10-1z"/><path fill="#1d3cb7" d="M671 536h5c.8 3.287 1.097 4.71 0 8-1.937.75-1.937.75-4 1l-2-1v-2h-2v-3h2z"/><path fill="#0219ab" d="M459 570c1.315 3.659.655 6.08-.437 9.75l-.872 2.984L457 585h-1a558 558 0 0 1-1.062-4.875l-.598-2.742C454 575 454 575 455 573l-6 1v-2c3.508-1.604 6.144-2.22 10-2"/><path fill="#3265cf" d="M125 472c.125 7.75.125 7.75-1 10h-4v-3h-2v-6c2.463-1.231 4.28-1.072 7-1"/><path fill="#1e55d4" d="m604 120.813 3.188-.043C610 121 610 121 613 123v4l-3-1v-2c-1.892-.681-1.892-.681-4-1l-2 2c-2.383-.023-2.383-.023-5.125-.375l-2.758-.336L594 124c1.953-3.907 6.119-3.164 10-3.187"/><path fill="#0d2edb" d="M396 821c1.155 3.385.844 5.314-.328 8.66l-.926 2.654-.996 2.749-.95 2.76c-2.621 7.381-2.621 7.381-5.8 10.177.6-4.204 1.66-7.98 3-12v-3l2-1c.685-1.888.685-1.888 1.125-4.062l.508-2.223L394 824h2z"/><path fill="#2047e9" d="m511 785 10 4v3h3v2h-4v-2l-9-2v-2l-5-1 1.938-.437c2.037-.373 2.037-.373 3.062-1.563"/><path fill="#5b9af8" d="M184 643c-.125 1.813-.125 1.813-1 4-4.09 2.663-7.16 3.346-12 3l-1-3q2.654-1.008 5.313-2l2.988-1.125C181 643 181 643 184 643"/><path fill="#3b79f5" d="m13 492 4 2c-.75 5.75-.75 5.75-3 8a90 90 0 0 0-1 6h-2c-1.437-6.14-.326-10.204 2-16"/><path fill="#2050ee" d="M297 107c2 3 2 3 1.625 6.188L298 116h-2l-1 5h-5c1.25-3.46 2.675-6.147 5-9l-2-1z"/><path fill="#1131c2" d="M511 526h2c-1.452 3.332-3.285 5.542-5.844 8.11l-2.277 2.285-2.379 2.355-2.379 2.402-2.277 2.27-2.088 2.08C494 547 494 547 492 547l-1 3-1-3c2.486-2.59 5.096-4.97 7.813-7.312 7.225-6.272 7.225-6.272 13.187-13.688"/><path fill="#315cd1" d="m286 482 1.605.492c7.176 1.522 15.216.844 22.395-.492v2l-2.937 1.438c-2.868 1.264-2.868 1.264-4.063 2.562-2 .04-4 .043-6 0v-2l-11-2z"/><path fill="#265df4" d="M267 187h2c-.566 5.377-1.882 9.887-3.937 14.875l-.803 2.047c-2.003 4.95-2.003 4.95-4.26 6.078.663-5.257 2.256-9.929 4.063-14.875l.853-2.375q1.036-2.876 2.084-5.75"/><path fill="#1e43e3" d="M436 85h2c2 3 2 3 2 6h2c1.316 3.62 2 6.096 2 10h2v7l-2-2v-4h-2l-.75-3.062c-.794-2.839-1.857-5.164-3.375-7.688C436 88 436 88 436 85"/><path fill="#1938e1" d="m658 659-1.207 1.32c-3.282 3.69-5.787 7.11-7.793 11.68h-2c-.294-4.992-.078-7.974 3-12 2.709-1.354 5.01-1.065 8-1"/><path fill="#5294f9" d="m41 480 1 4-2.555.402-3.32.536-3.305.527c-2.758.39-2.758.39-4.82 1.535l2-6c3.734-.879 7.168-1.09 11-1"/><path fill="#2255ef" d="M280 588h3v19l-1-3h-2z"/><path fill="#092fc0" d="M626 59h2c2.24 6.191 2.783 12.134-.047 18.27L627 79l-2-1 .219-2.887.281-3.8.281-3.762c.177-2.866.263-5.682.219-8.551"/><path fill="#2f63de" d="M476 833h5c-.5 4.38-1.932 6.842-5 10h-3v-6h2z"/><path fill="#1736dc" d="M469 730h2l2 10h2l1 11c-2-1-2-1-2.781-3.215l-.719-2.722c-.995-3.947-.995-3.947-3.5-7.063-.27-2.688-.087-5.291 0-8"/><path fill="#0945ee" d="M124 550c3.052 4.069 3.374 4.537 3.293 9.203l-.03 2.969c-.024 1.016-.05 2.031-.076 3.078l-.04 3.125A730 730 0 0 1 127 576h-2z"/><path fill="#0e2cd6" d="m57 531 2.875 2c2.787 2.18 2.787 2.18 5.125 2v2l3 1a90 90 0 0 1 2 4l2 1-2 4c-2.015-2.52-4.021-5.029-5.937-7.625-1.96-2.51-1.96-2.51-4.813-4L57 534z"/><path fill="#0b27b5" d="M403.125 584.875 406 585c-1 2-1 2-3 3a109 109 0 0 0-1 7h-3v5l-1-2h-2v-2h2l-.07-1.898-.055-2.477-.07-2.46c.338-3.755 1.733-4.147 5.32-4.29"/><path fill="#3572e6" d="M626 547h8l-1 3-3 1c-1.209 2-1.209 2-2 4l-5-1v-3h2z"/><path fill="#2d72f3" d="M193 474h1l.184 3.98.254 5.207.119 2.62c.208 4.175.574 8.096 1.443 12.193-.437 2.813-.437 2.813-1 5-2.912-3.288-4.497-5.599-5-10h2z"/><path fill="#224bef" d="M544 374c1.938.5 1.938.5 4 2 .97 3.42 1.618 6.764 0 10h2c1.125 4.75 1.125 4.75 0 7h-2c-2.018-4.162-2-7.429-2-12-.933-2.2-.933-2.2-2-4z"/><path fill="#5698fc" d="M167 234h3c-1.536 3.68-3.782 5.988-6.625 8.75l-2.477 2.422L159 247l-3-1 1-3 1.938-.437L161 242a90 90 0 0 0 2-4l3-1z"/><path fill="#1a39e3" d="M239 831h23v2c-3.821 1.228-7.512 1.133-11.5 1.125l-3.969.008c-2.753-.104-4.935-.298-7.531-1.133z"/><path fill="#1f43ee" d="m602 776 2 3c-2.02 3.03-2.757 3.722-6 5h-3v2l-4 1c.317-3.05.889-3.907 3.285-5.922l2.778-1.828 2.785-1.86z"/><path fill="#62aafa" d="M196 628c1.117 2.793.933 4.467.5 7.5-2.034 4.746-3.836 5.454-8.5 7.5h-3v-3l2.313-.687c3.246-1.586 3.975-3.215 5.687-6.313h2z"/><path fill="#1a48cf" d="M95 424h2v2l5 1a440 440 0 0 1-.312 6.25l-.176 3.516C101 440 101 440 98 444v-17h-2z"/><path fill="#3161d9" d="M650 242v7l-8 1c.677-4.742 3.047-8 8-8"/><path fill="#68abf7" d="m368.688 18.938 2.449.027L373 19l-1 4-12 1 1-4c2.882-.96 4.699-1.106 7.688-1.062"/><path fill="#215ae6" d="M581 365v2c-5.225 1.467-9.581 2.226-15 2 1-3 1-3 2.89-4.02 7.8-2.621 7.8-2.621 12.11.02"/><path fill="#427cf1" d="m609 56 1 4c-2.675 1.663-5 3-8 4l.063-2.875c.163-3.032.163-3.032-1.063-5.125 3.29-1.097 4.713-.8 8 0"/><path fill="#5899fa" d="M577 730h4c-.083 2.817-.577 4.534-2.484 6.633-3.089 2.732-5.391 4.602-9.516 5.367 1-3 1-3 3.438-4.312 3.264-2.15 3.654-3.973 4.562-7.688"/><path fill="#1a40d9" d="M235 528c4.041 1.6 6.68 4.487 9.625 7.563 3.339 3.664 3.339 3.664 7.375 6.437v3h-5l-.937-2.937c-1.97-4.722-5.53-7.789-9.2-11.243L235 529z"/><path fill="#2751eb" d="m459 482 3 1c-.562 1.875-.562 1.875-2 4-5.112 2.045-9.588 2.355-15 2-2.238-1.016-2.238-1.016-4-2l2.668-.078 3.52-.172 3.48-.14c3.834-.702 5.395-2.155 8.332-4.61"/><path fill="#69abf9" d="M19 487q3.012.43 6 1l1 3h-3v2c-4.75 1.125-4.75 1.125-7 0 1.875-4.875 1.875-4.875 3-6"/><path fill="#183ce0" d="M431 67c2 1 2 1 3 3.582l1 3.23c1.32 4.308 1.32 4.308 3.188 8.387C439 84 439 84 438 87v-2h-2c-3.496-6.09-4.713-11-5-18"/><path fill="#61aff4" d="M317 61c1.08 3.24.921 4.384.188 7.625l-.52 2.414C316 73 316 73 314 74c-.685 1.888-.685 1.888-1.125 4.063l-.508 2.222L312 82h-2v-6h2l.332-1.758c.982-4.84 2.216-8.896 4.668-13.242"/><path fill="#1637d0" d="M299 573c5.266.596 9.944 1.813 14.938 3.563l2.072.708q2.497.859 4.99 1.729v2c-7.886-1.169-14.748-3.735-22-7z"/><path fill="#1144c9" d="M597 71h3a99 99 0 0 1 3 5l2 1v2l2 1c-2.915.89-4.42 1.258-7.25 0-2.46-2.812-2.475-5.35-2.75-9"/><path fill="#0621bc" d="M454 577c3.422 3.422 2.859 8.333 3 13-.173 2.412-.525 4.623-1 7h-1c-1.963-7.043-2-12.775-1-20"/><path fill="#0c2ad0" d="M550 493c2.263 3.558 2.073 6.125 1.625 10.25l-.336 3.266L551 509l-3-1c-1.149-3.446-.804-5.099-.125-8.625l.555-2.977C549 494 549 494 550 493"/><path fill="#2b5dd2" d="M667.063 284.938 670 285l1 3c-1.974 2.523-2.967 2.993-6.187 3.688L662 292c1.04-6.98 1.04-6.98 5.063-7.062"/><path fill="#4f93f5" d="m611 632 2 3-3 4 2 1h-2l-.937 2.375C608 645 608 645 607 647h-2c-.325-4.654.202-7.234 3-11l2-1z"/><path fill="#1233d5" d="M9 508c1.89.227 1.89.227 4 1 1.047 1.96 1.047 1.96 1.75 4.375l.734 2.398C16 518 16 518 16 521l3 1v2h-3l-1-4h-2c-1.604-3.508-2.22-6.144-2-10H9z"/><path fill="#3676f3" d="M339 826c3 2 3 2 3.547 4.313l.203 2.687.234 2.688C343 838 343 838 342 840h-3z"/><path fill="#2242ed" d="M641 680h2l-1 14h-2v8h-1c-.264-7.595.391-14.574 2-22"/><path fill="#63a8f8" d="m635 615 2 1-3 1v2c-2.336 1.691-2.336 1.691-5.375 3.563l-3.023 1.878c-1.506.902-3.032 1.774-4.602 2.559.688-2.875.688-2.875 2-6 2.188-1.125 2.188-1.125 5-2q1.861-1.065 3.688-2.187z"/><path fill="#0a31ce" d="M481 594h3q.079 2.156.125 4.313l.07 2.425C484 603 484 603 482 606l-3 1z"/><path fill="#0627b0" d="M628 571h13l1 3c-8.702 1.475-8.702 1.475-13-1z"/><path fill="#2356f1" d="M279 158c1.493 4.48-.276 7.739-2 12-1.687 3.063-1.687 3.063-3 5-1.184-3.449-.813-5.608.25-9.062l.766-2.598c1.01-2.401 2.024-3.66 3.984-5.34"/><path fill="#599ff0" d="M301 100h2c.533 6.259-1.182 10.451-4 16-1.668-6.27-1.265-10.286 2-16"/><path fill="#327edf" d="m549.75 743.375 3.547.336L556 744v2c-5.068 1.267-10.561 1.975-15.5 0l-1.5-1c3.665-2.377 6.49-2.05 10.75-1.625"/><path fill="#0e2fe4" d="M425 731h2l-2 10h-2v7h-1l-1-12 2-1c1.134-2.017 1.134-2.017 2-4"/><path fill="#396fd9" d="M209 724c3.688.875 3.688.875 7 2l-1 4c-5.625.25-5.625.25-9-2v-2z"/><path fill="#1030dd" d="m429 711 3 1-3 16h-2l-2-5 2-2c.643-2.069.643-2.069 1-4h2z"/><path fill="#072ad0" d="M444 650c1.016 3.047 1.01 3.988.441 7.012l-.42 2.295-.459 2.38-.447 2.417c-.365 1.966-.74 3.931-1.115 5.896h-2v-12h3l-.062-3.437C443 651 443 651 444 650"/><path fill="#0319b5" d="M332 598h1v8h2v20h-1l-.184-2.117-.253-2.758-.247-2.742c-.186-2.394-.186-2.394-1.316-4.383h2l-1-2.375c-1.274-4.619-1.17-8.867-1-13.625"/><path fill="#1339d3" d="m543 553 2 1a939 939 0 0 1-2 17c-1.93-3.86-3.125-6.261-3.062-10.625l.027-2.477L540 556l2 4z"/><path fill="#0c35ce" d="M549 444h3c1.32 6.449.695 12.488 0 19h-1v-11h-2z"/><path fill="#0b32b2" d="m81 384 3 1-1 2h-2l-1 3c-5.957.293-5.957.293-8 0l-3-3h11z"/><path fill="#73b7f8" d="M201 375h2c1.363 3.68.584 5.5-1 9a500 500 0 0 0-2 6l-1-2 1-2-3-1 1-5h3z"/><path fill="#1c4acd" d="m659 201 2 1c-4.571 3.56-8.04 4.626-13.875 4.75l-2.086.09c-1.679.07-3.359.117-5.039.16v-2h-4l1-3 2.16.98c5.761 2.069 11.827 1.903 17.403-.542z"/><path fill="#4a8af7" d="M202 609h1c-.41 6.578-.866 12.74-3 19-1.238-3.576-.75-6.337 0-10h-2v-5h4z"/><path fill="#3c7ef7" d="M69 484c9.595 1.743 9.595 1.743 13 5-6.617 1.353-6.617 1.353-10 0-2.25-1.562-2.25-1.562-4-3z"/><path fill="#06299e" d="M647 493h2c-1.096 6.577-1.096 6.577-3 9-3.625.75-3.625.75-7 1v-3l2.313-.687c3.246-1.586 3.975-3.215 5.687-6.313"/><path fill="#5398fe" d="m213 188 1 2 3-1c-1.491 3.795-3.757 5.61-7 8l-4-2 3-1c1.209-2 1.209-2 2-4h2z"/><path fill="#4883ef" d="M575 734v3a99 99 0 0 1-5 3l-1 2 2 1c-1.812 1.563-1.812 1.563-4 3l-3-1c1.328-4.284 2.825-5.978 6.625-8.312l2.477-1.551z"/><path fill="#4d97f9" d="M276 658h2q.039 2.938.063 5.875l.035 3.305C278 670 278 670 277 672h-2q-.04-2.656-.062-5.312l-.036-2.989C275 661 275 661 276 658"/><path fill="#0d36bb" d="M595 596h4v2l2.25-.625c3.073-.42 4.178.006 6.75 1.625-2 2-2 2-5.375 2.375C599 601 599 601 596.563 599.063 595 597 595 597 595 596"/><path fill="#4792fc" d="M197 528v15c-2-1-2-1-2.621-2.766-.403-2.376-.477-4.576-.441-6.984l.027-2.422L194 529c2-1 2-1 3-1"/><path fill="#1337e7" d="M279 809c1 3 1 3 .063 5.188L278 816h-2l-2 6h-2l1-7 3-1v-2c1.5-1.625 1.5-1.625 3-3"/><path fill="#316af2" d="M394 586h-9v2h-10v-3l1.758.035c3.644.042 6.96.018 10.555-.66C390 584 390 584 394 586"/><path fill="#81b1f6" d="M80 422c-1.265 3.794-2.617 4.067-6 6l-1.687 1.688L71 431h-2c.543-3.8 2.115-5.539 5-8 3-1 3-1 6-1"/><path fill="#0e36c5" d="M187 757h3v2l3 1c1.517 3.413.728 6.442 0 10h-2l-.684-5.957c-.288-2.237-.288-2.237-1.316-5.043h-2z"/><path fill="#1e42ec" d="M526 644h2v6l-2 1c-.652 2.025-.652 2.025-1 4l-3-1 1-7 3-1z"/><path fill="#4c87f5" d="m651.25 607.938 2.703.027L656 608l-4 1v2c-3.317 1.422-6.442 2.39-10 3l3-3-3-2c3.155-.936 5.966-1.106 9.25-1.062"/><path fill="#316bf6" d="m471 560 4 1c-5.94 3.679-11.108 5.797-18 7l1-3c2.896-1.448 4.742-2 8-2 1.671-.31 3.339-.64 5-1z"/><path fill="#1b52e3" d="m73 418 1 4h-3v5h-6v-2h2l.188-1.812c1.136-3.06 2.985-3.738 5.812-5.188"/><path fill="#183ee5" d="M122 688c4.548-.178 7.88.002 12 2l-1 3c-3.123-.486-5.996-.999-9-2v-2z"/><path fill="#1a43ec" d="M471 662h1q.079 3.188.125 6.375l.07 3.586C472 675 472 675 470 677l-2-10 3-1z"/><path fill="#1345cb" d="M125 472h3c1.43 2.354 2.087 3.48 1.625 6.25L129 480h-4c-.8-3.287-1.097-4.71 0-8"/><path fill="#3966e2" d="M332 453h1c.738 13.633.738 13.633-4 20h-1c-.125-2.375-.125-2.375 0-5l2-2c.457-2.193.82-4.406 1.125-6.625l.508-3.602z"/><path fill="#4986e8" d="M68 371h7c-.312 1.875-.312 1.875-1 4-3 2-3 2-6 2z"/><path fill="#285cf0" d="M235 275h1c-.601 5.65-2.075 10.662-4 16-2-3-2-3-1.61-5.375l.86-2.625.828-2.625C233 278 233 278 235 275"/><path fill="#68a8fc" d="M246 252c1.226 3.677.618 4.701-.75 8.25l-1.125 2.941A285 285 0 0 1 240 273c-1.103-3.31-.953-3.854.18-6.977l.816-2.28.879-2.368.855-2.39c2.113-5.828 2.113-5.828 3.27-6.985"/><path fill="#2e66e3" d="m614 52 1 3-13 1v-2c4.12-1.998 7.452-2.178 12-2"/><path fill="#408af3" d="M241 769h2v7l-2 1-2-1-.312 1.938L238 780l-3 1c1.566-4.308 3.683-8.062 6-12"/><path fill="#0524cf" d="M438 678h1c-.41 6.578-.866 12.74-3 19h-1q-.04-2.625-.062-5.25l-.036-2.953c.086-2.455.39-4.459 1.098-6.797h2z"/><path fill="#2744f1" d="m44 526 1 3H32v-2c3.981-1.327 7.85-1.07 12-1"/><path fill="#3c73f6" d="M290 485h9l-2 1v2l11-1c-4.057 2.705-7.242 2.42-12 2-3.562-1-3.562-1-6-2z"/><path fill="#2b65e8" d="M121 295h2l-1 16h-2c-1.268-3.654-.757-6.49-.062-10.25l.59-3.266z"/><path fill="#113bc8" d="M643 206h11v3h-11z"/><path fill="#0e2fe1" d="M295 784c-.63 3.219-1.78 5.508-3.562 8.25l-1.38 2.14L289 796c-1.118-3.355-.915-3.97.313-7.125l.8-2.133C291.338 784.336 292.34 784 295 784"/><path fill="#428ae9" d="M233 782h2c-.68 7.211-.68 7.211-4 10-1.176 2.1-1.176 2.1-2 4l-1-5h2l.375-2.25c.58-2.551 1.362-4.477 2.625-6.75"/><path fill="#163ae6" d="M480 758a348 348 0 0 1 5 4l1.875 1.438C488 765 488 765 487.688 767.688L487 770l-.812-1.937c-1.075-2.394-1.075-2.394-4.188-3.063-1.648-2.602-2-3.862-2-7"/><path fill="#1937db" d="M669 651h14v2l-16 1 2-1z"/><path fill="#1a42e6" d="M395 625v11h-3c-.943-3.667-1.114-6.353 0-10 2-1 2-1 3-1"/><path fill="#2e6cf8" d="M281 612h1q.331 4.124.625 8.25l.195 2.355.157 2.286.158 2.094C283 629 283 629 281 633v-12h-2v-4h2z"/><path fill="#1748d0" d="M628 194c3.73 1.243 4.847 2.77 7 6l-1 3-6-3z"/><path fill="#0427a1" d="M612 123h3l2 5h2l1 6-3-1v-4l-4-1z"/><path fill="#67aef0" d="m359 21 1 2c-1 2-1 2-3.75 3.25-3.643.84-5.009.466-8.25-1.25 3.687-2.458 6.697-3.012 11-4"/><path fill="#193fe5" d="M470 709c.25 6.625.25 6.625-2 10h2l-1 3h-2v-12c2-1 2-1 3-1"/><path fill="#1130da" d="m435 700-2 10-4-3a101 101 0 0 1 2-6c2-1 2-1 4-1"/><path fill="#1436c4" d="M524 509h2c-1.396 4.042-3.306 6.941-6 10.25l-2.125 2.64C516 524 516 524 514 525c1.307-4.313 3.566-7.01 6.563-10.254 1.497-1.82 2.464-3.607 3.437-5.746"/><path fill="#3b75e2" d="M633 489h7l-1 3h-3l-1 3h-3z"/><path fill="#2e68e7" d="M80 416h7v4h-8z"/><path fill="#1a46be" d="m656 253-2 3c-1.945.293-1.945.293-4.125.188L646 256l-1-3c7.625-1.125 7.625-1.125 11 0"/><path fill="#2965f1" d="M290 118c0 3.719-.874 4.361-3.312 7.063l-1.864 2.097C283 129 283 129 280 131c.518-4.104 2.646-5.957 5.563-8.75l2.503-2.422z"/><path fill="#072dab" d="M464 802c1 3 1 3 .063 5.188L463 809c-6.055.195-6.055.195-8 0l-2-2c3-1 3-1 5.5-.812 2.668.088 2.668.088 4.313-2.188z"/><path fill="#1e3fe7" d="M589 788v2l-10 2v-3c3.578-2.34 5.922-1.927 10-1"/><path fill="#1c3aea" d="M430 706c2 3 2 3 2 5h-3l1 6h-2l-1 4c-1.107-3.321-.877-4.696-.187-8.062.17-.878.342-1.756.519-2.66C428 708 428 708 430 706"/><path fill="#4780f4" d="M603 644h2v3h2v-2h2c-1.293 2.884-2.66 4.872-5 7v-2l-3 1z"/><path fill="#0a29ca" d="M447 624h3c.195 6.055.195 6.055 0 8l-2 2v-3h-2z"/><path fill="#5594f6" d="M645 610v3h-3l-1 3-2-1 1-2-4 1 1-3c2.928-.976 4.956-1.082 8-1"/><path fill="#3569ee" d="m647.125 168.938 3.32.027L653 169v2l-14 1v-2c2.765-1.382 5.046-1.095 8.125-1.062"/><path fill="#0c27de" d="M405 796h2c-3.075 10.558-3.075 10.558-5 15h-1c.365-5.664 1.055-10.007 4-15"/><path fill="#062fb6" d="M193 764h1c.5 6.118-.751 9.025-4 14h-4v-2l3-1c1.219-2.504 1.219-2.504 2-5h2z"/><path fill="#233eee" d="M638 707h1l-1 13h-3c.115-1.418.243-2.834.375-4.25.07-.789.14-1.578.21-2.39.43-2.446 1.201-4.208 2.415-6.36"/><path fill="#2458e3" d="M388 650h2v11h-4z"/><path fill="#1b54ea" d="M393 637h1l-1 14-1-4-3-1z"/><path fill="#0b38d8" d="M253 611h1q-.214 2.625-.437 5.25l-.247 2.953c-.267 2.362-.67 4.516-1.316 6.797h-2c.114-1.938.242-3.876.375-5.812.07-1.08.14-2.158.21-3.27C251 614 251 614 253 611"/><path fill="#102fb8" d="M73 581h2c.204 5.738.271 10.605-2 16h-1z"/><path fill="#0c1ebe" d="M489 551h2c1.837 3.782 2.158 5.946 1 10l-3-1c-1.125-5.625-1.125-5.625 0-9"/><path fill="#285dde" d="M627 544h9v2l-9 2z"/><path fill="#3e86e6" d="M190 454h1v14l-2 1c-1.517-10.558-1.517-10.558 1-15"/><path fill="#69a8fb" d="m228 300 2 1q-1.175 3.722-2.375 7.438l-.672 2.142c-.594 1.826-1.268 3.626-1.953 5.42l-2 1c1.038-6.067 2.34-11.437 5-17"/><path fill="#0225ab" d="M665 174c2.679 2.319 3.662 4.318 4.688 7.688.25.808.502 1.616.761 2.449L671 186h-3v-5h-2z"/><path fill="#96c7fc" d="m644 176-2.75 1.75c-2.77 1.918-4.97 3.794-7.25 6.25.188-2.812.188-2.812 1-6 3.15-2.64 5.11-3.585 9-2"/><path fill="#7db1f7" d="M603 125v3l-6 1-1 3h-2c.374-2.711.814-3.82 2.813-5.75C599 125 599 125 603 125"/><path fill="#145feb" d="m599 57 3 1-.437 1.688c-.59 2.426-1.086 4.861-1.563 7.312l-3-1c.875-6.75.875-6.75 2-9"/><path fill="#427ff0" d="M373 19h13l-4 4c-2.36-.047-2.36-.047-4.75-.75l-2.422-.672L373 21z"/><path fill="#5e9df2" d="M172 759h7v3c-2.647 1.46-3.894 2-7 2z"/><path fill="#0727e3" d="M125 580h1l1 20c-3-3-3-3-3.249-4.901l.175-2.11.166-2.296.22-2.38.186-2.417c.153-1.966.326-3.931.502-5.896"/><path fill="#1335d1" d="M75 565h1v15c-2-1-2-1-3-4 .086-2.191.086-2.191.375-4.562l.273-2.38C74 567 74 567 75 565"/><path fill="#2d50bd" d="m330 462 1 4-2 2a154 154 0 0 0-2 7l-3-3z"/><path fill="#1244c1" d="M65 375c3.006 3.006 2.596 5.824 3 10l6 1v1c-5.4.48-5.4.48-7.875-1.5-1.63-3.623-1.323-6.545-1.125-10.5"/><path fill="#2967dc" d="M67 372h1v5l5-2c-1.477 4.677-1.477 4.677-4.125 6.313L67 382c-1.125-6.625-1.125-6.625 0-10"/><path fill="#285df2" d="M244 251c1.124 3.304.896 5.05-.437 8.25l-.872 2.14L242 263l-2-1c.51-4.39 1.522-7.337 4-11"/><path fill="#2468f0" d="m628 179 4 2c-.25 2.375-.25 2.375-1 5l-4 2z"/><path fill="#0f31df" d="M310 748c1.136 3.41.867 4.003-.437 7.188l-.872 2.167L308 759h-1v-5l-2-1z"/><path fill="#1c3ceb" d="M427 724v7l-2 1c-1.134 2.017-1.134 2.017-2 4-.154-8-.154-8 1-11 2-1 2-1 3-1"/><path fill="#1539df" d="M330 650h1v8h-2v8l-2-2c.334-5.007 1.23-9.281 3-14"/><path fill="#60a2f8" d="M617 629c0 3.344-.475 4.068-2.375 6.688l-1.336 1.886L612 639h-2l1-2.312c1.174-2.679 1.174-2.679 1-5.688z"/><path fill="#1335da" d="m395 614 4 3-2 4-1-2v5l-4 2q.464-2.438.938-4.875l.527-2.742C394 616 394 616 395 614"/><path fill="#3e8efd" d="M192 500c3 3 3 3 3.188 5.688L195 508h-2v7h-1z"/><path fill="#306deb" d="M74 418c1.938.313 1.938.313 4 1l1 3-8 4v-4h3z"/><path fill="#1234df" d="m397 810 1 2 3-1-2 10h-2l1-5h-2z"/><path fill="#1e43e7" d="m498 779 7 2 1 5h-2v-2l-2.437-.812L499 782z"/><path fill="#467ff9" d="M363 761h1l1 6-4 1v4h-2c1.75-7.625 1.75-7.625 4-11"/><path fill="#154aee" d="M519 682h2c1.002 5.346.849 9.624 0 15h-1z"/><path fill="#092cd5" d="M329 639h1v7l3 1-1 11h-1v-9h-2z"/><path fill="#1d4bef" d="M128 613c2.228 2.228 2.692 3.658 3.625 6.625.26.817.52 1.635.79 2.477L133 624c-3-1-3-1-4.75-3.812-1.236-3.152-1.532-4.157-.25-7.188"/><path fill="#183be9" d="m78 614 1 9h-3l-1-8c2-1 2-1 3-1m1 3 1 4Z"/><path fill="#1237d7" d="M251 585h1c.09 5.152-.153 9.92-1 15-2-2-2-2-2.25-5.25.241-3.618.938-6.389 2.25-9.75"/><path fill="#3c76e4" d="m598 587 5 1c-.375 2.438-.375 2.438-1 5l-2 1v-2h-2z"/><path fill="#082aae" d="M650 555h1c.081 1.75.14 3.5.188 5.25l.105 2.953c-.335 3.194-1.06 4.526-3.293 6.797h-2c1.875-5.875 1.875-5.875 3-7 .23-1.347.412-2.704.563-4.062z"/><path fill="#0b30c1" d="M621 562c1.875.188 1.875.188 4 1 1.313 2.375 1.313 2.375 2 5l-1 3c-2.025-1.933-3.421-3.632-5-6z"/><path fill="#1d39bc" d="m457 482 2 1c-1.75 2.125-1.75 2.125-5 4-4.098-.245-8.01-1.058-12-2v-1l2.52-.184 3.293-.253 3.269-.247c2.978-.218 2.978-.218 5.918-1.316"/><path fill="#0b31bc" d="M663 294h2v2l3.875-.125c2.18-.07 2.18-.07 4.125.125l2 2c-2.853 1.427-4.835 1.31-8 1-2.875-2-2.875-2-5-4z"/><path fill="#3370ee" d="m586 713 1 2h3l1-2c-.312 2.375-.312 2.375-1 5l-3 2-3-1z"/><path fill="#4585fa" d="M596 672h1c-.087 1.626-.195 3.25-.312 4.875l-.176 2.742C596 682 596 682 593 684v-7l3-1z"/><path fill="#1333e3" d="M442 646h2l-1 12-2-1c-.125-7.625-.125-7.625 1-11"/><path fill="#0a33d2" d="M279 575h1c1.591 4.177 2.213 7.532 2 12h-3z"/><path fill="#0e3ae4" d="M541 572h1c.082 4.161-.018 7.947-1 12h-2c-.178-4.548.002-7.88 2-12"/><path fill="#0013b5" d="M250 561h2v12h-2q-.29-2.718-.562-5.437l-.317-3.06L249 562z"/><path fill="#173bcb" d="M511 526h2c-1.477 3.452-3.438 5.65-6.125 8.25l-2.195 2.14L503 538l-2-1 1.68-1.645 2.195-2.168 2.18-2.144c2.099-2.087 2.099-2.087 3.945-5.043"/><path fill="#0223c8" d="M550 510h1c.082 4.161-.018 7.947-1 12h-2v-9h2z"/><path fill="#2348ce" d="m428 478 1.938 1.375c3.901 2.07 7.746 2.826 12.062 3.625v1l-13-1z"/><path fill="#264ee7" d="M478 464h3c-.424 1.462-.865 2.92-1.312 4.375l-.739 2.46C478 473 478 473 475 475l-1-3 3-1z"/><path fill="#0b32bd" d="M74.125 450.688C76 452 76 452 76.75 454.125L77 456c-6.875-2.75-6.875-2.75-8-5 3-1 3-1 5.125-.312"/><path fill="#2148c8" d="m97 444 1 2c-1.807 2.57-3.612 4.946-6 7-3.375-.062-3.375-.062-6-1 3-2 3-2 5.5-2.875 2.828-1.272 3.863-2.54 5.5-5.125"/><path fill="#468cf5" d="m156 244 2 4c-4.75 4-4.75 4-7 4 .542-3.796 2.201-5.472 5-8"/><path fill="#1c4be6" d="M289 131c.93 2.551 1.086 3.74.223 6.36l-1.16 2.39-1.153 2.422L286 144c-1.125-3.375-.906-3.919.375-7.062l.836-2.098A72 72 0 0 1 289 131"/><path fill="#649aef" d="M476 833h5v3h-3l-1 3h-2z"/><path fill="#2e60f2" d="m223 809 1 2 4-1 2 8-2 1v-2h-2v-4l-3-1z"/><path fill="#4d86f7" d="M178 645v2h-2l1 3h-6l-1-3c2.906-1.257 4.796-2 8-2"/><path fill="#275ce8" d="m171 366 2.52.219 3.292.281 3.27.281c2.929.256 2.929.256 5.918.219-2 2-2 2-4.277 2.23l-2.66-.043-2.653-.019C174 369 174 369 171 368z"/><path fill="#113fc0" d="m604 121 9 1v5l-3-1v-2l-6-2z"/><path fill="#072fa0" d="M626 59h2c2.125 6.625 2.125 6.625 1 10h-2z"/><path fill="#2f70e7" d="M601 58h2l-1 6 5-4 2 1c-1.75 2-1.75 2-4 4h-4a129 129 0 0 1-1-6z"/><path fill="#203ff0" d="M385 845h2v4l-5 1 1-3h2zm-6 6h2l-1 3-3-1h2z"/><path fill="#1e3beb" d="M401 802c1.312 3.937.243 6.125-1 10h-2c-.37-5.415-.37-5.415 1.5-8.375z"/><path fill="#1134de" d="m410 774 3 1c.125 5.75.125 5.75-1 8h-2c-1.125-6.75-1.125-6.75 0-9"/><path fill="#2140ee" d="M634 727c1.118 3.355.915 3.97-.312 7.125l-.801 2.133C632 738 632 738 630 739c.468-4.776 1.243-8.045 4-12"/><path fill="#3b80fa" d="M374 714h3c.125 3.375.125 3.375 0 7l-2 2c-1.478-2.957-1.06-5.742-1-9"/><path fill="#1535e1" d="M79 634h3l2 10h-2z"/><path fill="#4e9ef6" d="m194 627 2 3-1 3h-2l-.812 2.438L191 638l-3 1z"/><path fill="#83b5f6" d="M634 547c-1.41 4.23-4.164 5.082-8 7 .915-5.305 2.534-7 8-7"/><path fill="#1e48e8" d="M122 542h2l1 8h-3a177 177 0 0 1-1-7z"/><path fill="#193deb" d="M65 537c3 1 3 1 4.063 3l.937 2 2 1-2 4c-3.442-2.66-3.995-5.903-5-10"/><path fill="#2057ec" d="M583 361c3.625-.187 3.625-.187 7 0v2c-4.43 2.092-4.43 2.092-7.312 1.625L581 364z"/><path fill="#265cf4" d="M271 176h2c-.615 6.523-.615 6.523-2.562 8.938-.475.35-.95.7-1.438 1.062.875-7.75.875-7.75 2-10"/><path fill="#072395" d="M619 135c.883 2.467 1.131 3.639.223 6.14l-1.16 2.11-1.153 2.14L616 147c-1.136-3.717-.667-5.47 1-9h2z"/><path fill="#1433d8" d="m446 104 .875 1.938c.953 2.214.953 2.214 3.125 3.062v5l-4-2z"/><path fill="#2b67e7" d="M297 107c2 3 2 3 1.625 6.188L298 116l-1-3c-2-1.209-2-1.209-4-2z"/><path fill="#1235eb" d="M623 758v2l-2 1a396 396 0 0 0-3 5h-1v-6c3.75-2 3.75-2 6-2"/><path fill="#0e33e2" d="m481 604 2 2c-.25 3.563-.25 3.563-1 7l-2 1v-5l-2-1 2-1z"/><path fill="#072ade" d="M486 586c1.255 3.766.37 5.372-1 9l-4-1 1-2 2 1-1-3c1.438-2.187 1.438-2.187 3-4"/><path fill="#4d92fa" d="M201 571v8h-3v-7c2-1 2-1 3-1"/><path fill="#0e35d9" d="M544 542h3l-1 9h-2z"/><path fill="#3565f1" d="M193 518h2v8h-3z"/><path fill="#1c57ec" d="M619 323h2v7h-3l-1 2c.486-3.123.999-5.996 2-9"/><path fill="#387ef6" d="M629 177h3v2l3 1-1 4h-2v-3l-3-1z"/><path fill="#60aaf3" d="m330 39 1 2c-.996 2.164-.996 2.164-2.437 4.625l-1.434 2.477L326 50h-1c-.392-2.664-.406-4.392 1.113-6.668 1.25-1.483 2.566-2.912 3.887-4.332"/><path fill="#1d43e1" d="M413 36c2.5 1.813 2.5 1.813 5 4v3l2 1h-4c-2.175-2.874-3-4.364-3-8"/><path fill="#71b8f6" d="m350 25-1 4-7 1 1-3c2.433-1.185 4.28-2 7-2"/><path fill="#4387fd" d="M344 821c1.208 3.623.543 4.641-1 8l-3-2v-3c2-1.687 2-1.687 4-3"/><path fill="#3d85f6" d="M370 734h2v7l-4-1z"/><path fill="#518bf6" d="M577 730h4l-1 5-1-2-3 1z"/><path fill="#0c2fda" d="M469 730h2l1 8h-3z"/><path fill="#4684f8" d="M581 725h3c-.75 4.75-.75 4.75-3 7v-2l-3-1h2z"/><path fill="#2758f4" d="M520 708h1c.188 3.375.188 3.375 0 7l-3 2-1-7h3z"/><path fill="#3a7ff6" d="M379 698h2l-1 9-2-1q-.062-3.5 0-7z"/><path fill="#0e26e1" d="M643 690c1.238 3.576.75 6.337 0 10h-3v-6h2z"/><path fill="#2548ee" d="M208 690h-2l-1 3h-7c1-2 1-2 3.313-3.187 2.807-.85 3.989-.812 6.687.187"/><path fill="#1033d4" d="m472 643 4 2c0 3 0 3-2 6l-2-1z"/><path fill="#1944e2" d="M396 607h2v10l-3-3c.313-3.687.313-3.687 1-7"/><path fill="#1f48ee" d="M539 567h3l1 5-4 3c-1.125-5.75-1.125-5.75 0-8"/><path fill="#0f42c2" d="M640 486c4.75.75 4.75.75 7 3v3l-3 1-.312-1.812c-.777-2.47-1.759-3.51-3.688-5.188"/><path fill="#2244e2" d="m459 482 3 1-2 4h-6z"/><path fill="#396ff1" d="M189 449h3v6h-4z"/><path fill="#2960f3" d="M239 264h1c.23 3.367.34 5.414-1.375 8.375L237 274h-2q.714-2.22 1.438-4.437l.808-2.497C238 265 238 265 239 264"/><path fill="#a0c9f9" d="M609 58v2c-4.47 4-4.47 4-7 4 .313-1.875.313-1.875 1-4 3-2 3-2 6-2"/><path fill="#1835e7" d="M227 672h5l-1.375 1.25c-1.685 1.814-2.618 3.503-3.625 5.75l-2-1z"/><path fill="#1032d6" d="m84 644 1 3h2c1.063 1.813 1.063 1.813 2 4l-1 3c-2-1-2-1-3.125-3.312C84 648 84 648 84 644"/><path fill="#5da5fe" d="M198 618h2c.188 2.875.188 2.875 0 6l-3 2c-1.208-3.623-.543-4.641 1-8"/><path fill="#1a46e9" d="M532 613h2c.125 7.75.125 7.75-1 10h-2v-6h2z"/><path fill="#56a6fe" d="M193 508h2v9h-3z"/><path fill="#2f59ce" d="M470 423c4.206 1.502 5.739 4.286 8 8l-1 2-1.25-2.25c-1.687-2.651-3.501-4.579-5.75-6.75z"/><path fill="#5184e9" d="M645 243h4v5h-4z"/><path fill="#4d8ff5" d="m196 205 2 3c-2.395 2.9-4.312 3.502-8 4a105 105 0 0 1 4-5h2z"/><path fill="#123bd0" d="M654 168c6.75 1.625 6.75 1.625 9 5h-5l-1-3h-3z"/><path fill="#518af7" d="m236 166 2 4c-2 2-2 2-4.625 2.125L231 172v-2l1.938-.875c2.214-.953 2.214-.953 3.062-3.125"/><path fill="#3d76fd" d="M295 112c-1.37 3.161-1.99 3.993-5 6l-2-2c3.625-4 3.625-4 7-4"/><path fill="#2f5bed" d="m392 23 7 1v2l2 1-3 1v-2l-6-1z"/><path fill="#274df3" d="M521 790c3.344.557 6.033 1.352 9 3l-5 2-1-3h-3z"/><path fill="#122fe6" d="M652 659h6l-6 7c-1.044-3.133-.934-3.99 0-7"/><path fill="#1440ee" d="M711 617h2c1.765 3.088 2 4.233 2 8h-2c-1.257-2.906-2-4.796-2-8"/><path fill="#6eacfa" d="m635 615 2 1-3 1v2l-6 2c1-3 1-3 3.938-4.75z"/><path fill="#3e84ee" d="m200 605 3 1-1 7h-2z"/><path fill="#2652e7" d="M269 558c3.344.557 6.033 1.352 9 3v2a85 85 0 0 1-7-2v-2z"/><path fill="#2361d1" d="M637 486c2.188.313 2.188.313 4 1v5l-2-1 1-2h-6c1.25-1.562 1.25-1.562 3-3"/><path fill="#2f60ef" d="m324 473 2 1c-1.393 3.367-2.979 4.986-6 7l-2-1z"/><path fill="#0a2fb6" d="m98 447 3 1-2 3h-2v2l-3 1a101 101 0 0 1 2-6z"/><path fill="#092dbe" d="m96 420 3 2v2h2l1 3-5-1z"/><path fill="#4087fa" d="m213 188 1 2 3-1c-1.393 3.367-2.979 4.986-6 7l2-5-2-1h2z"/><path fill="#468cfd" d="M290 117c-1.37 3.161-1.99 3.993-5 6l-1-4c3-2 3-2 6-2"/><path fill="#64a8f3" d="M340 31c-1.333 4-3.496 4.838-7 7l-2-1a483 483 0 0 1 3.375-3l1.898-1.687C338 31 338 31 340 31"/><path fill="#3f7aeb" d="M455 799h3l1 5h-4l-1-3z"/><path fill="#59a1f8" d="M256 743c1.208 3.623.543 4.641-1 8l-2-1v-5h3z"/><path fill="#396cf4" d="m546 743-1 4-6-1c1.596-3.191 3.64-3 7-3"/><path fill="#2966f5" d="M377 704c1.5 1.313 1.5 1.313 3 3v3h-5z"/><path fill="#0f2fd8" d="M703 650v2c-2.709 1.354-5.01 1.065-8 1v-2c2.892-.826 4.887-1 8-1"/><path fill="#2548a5" d="m672 524-1 3h-5v-3c3-1 3-1 6 0"/><path fill="#5889ef" d="M671 521c-2 2-2 2-5.125 2.125L663 523v-2c2.862-1.43 4.934-.6 8 0"/><path fill="#0a26c3" d="M550 493c1.984 2.917 1.988 4.124 1.625 7.75L551 504c-2.09-3.396-2.263-6.052-2-10z"/><path fill="#639eff" d="M35 480h6v3h-6z"/><path fill="#1646cf" d="M67 446c2.915 1.074 4.778 1.778 7 4l-6 1z"/><path fill="#3671e0" d="m193 416 2 1-1 7h-2z"/><path fill="#76c4fb" d="m200 381 2 1a109 109 0 0 1-1 7l-2 1 1-4-3-1 3-1z"/><path fill="#66a3fb" d="M220 323c1.392 4.176-.177 6.135-2 10h-1l1-8h2z"/><path fill="#1437d8" d="M431 67c2 1 2 1 2.633 2.848l.492 2.215.508 2.222L435 76l-3-1z"/><path fill="#58a1ed" d="M317 61c1.255 3.766.37 5.372-1 9h-2c.498-3.735.875-5.812 3-9"/><path fill="#0d32ee" d="M390 838h1c-.615 6.523-.615 6.523-2.562 8.938-.475.35-.95.7-1.438 1.062.507-3.719 1.116-6.735 3-10"/><path fill="#164cc2" d="M478 830h6l1 4-5-1v-2z"/><path fill="#1f41ed" d="M393 824c1.255 3.766.37 5.372-1 9h-2q.463-1.97.938-3.937l.527-2.215C392 825 392 825 393 824"/><path fill="#1341c9" d="M187 757h3v2h2v5l-2-1c-.625-2.062-.625-2.062-1-4h-2z"/><path fill="#5592f9" d="m566 743-2 3h-4v-3c3-1 3-1 6 0"/><path fill="#0b2dd9" d="M322 706h1c.286 7.429.286 7.429-2 11l-1-6h2z"/><path fill="#4b8bf7" d="M266 709h3v5l-3 1z"/><path fill="#3e7ff9" d="M381 687h3l-1 7h-2z"/><path fill="#457af6" d="M159 647h7l-1 3h-5z"/><path fill="#112fea" d="M710 645c-1 3-1 3-4 5h-3c1-3 1-3 2.938-4.187C708 645 708 645 710 645"/><path fill="#1b61f3" d="M134 627h2l4 7h-4c-1.46-2.647-2-3.894-2-7"/><path fill="#0c2dab" d="M647 493h2l-1 5-4 1z"/><path fill="#437ff8" d="M56 481c2.375-.187 2.375-.187 5 0l2 3h-6z"/><path fill="#1e4cbe" d="M116 476h2v3l3-1-2 4-3-1z"/><path fill="#1c40db" d="M198 455c2 2 2 2 2.125 5.625L200 464c-1.562-1.687-1.562-1.687-3-4 .313-2.75.313-2.75 1-5"/><path fill="#151f39" d="M431 422c-5.75 4-5.75 4-8 4 .813-1.937.813-1.937 2-4 3-1 3-1 6 0"/><path fill="#67a7fa" d="m232 289 2 2-3 7h-1c-.25-5.625-.25-5.625 2-9"/><path fill="#284dea" d="M436 85h2c2.29 3.435 2.178 4.985 2 9-4-6-4-6-4-9"/></svg>